<svg width="91" height="32" viewBox="0 0 91 32" fill="none" xmlns="http://www.w3.org/2000/svg">
<path d="M0.5 15.9C0.5 7.61575 7.21573 0.900024 15.5 0.900024H90.7V11.9C90.7 22.9457 81.7457 31.9 70.7 31.9H0.5V15.9Z" fill="#F74B81"/>
<path d="M25.996 12.646C25.96 12.706 25.92 12.752 25.876 12.784C25.836 12.812 25.786 12.826 25.726 12.826C25.658 12.826 25.578 12.792 25.486 12.724C25.394 12.656 25.278 12.582 25.138 12.502C25.002 12.418 24.836 12.342 24.64 12.274C24.448 12.206 24.214 12.172 23.938 12.172C23.678 12.172 23.448 12.208 23.248 12.28C23.052 12.348 22.886 12.442 22.75 12.562C22.618 12.682 22.518 12.824 22.45 12.988C22.382 13.148 22.348 13.322 22.348 13.51C22.348 13.75 22.406 13.95 22.522 14.11C22.642 14.266 22.798 14.4 22.99 14.512C23.186 14.624 23.406 14.722 23.65 14.806C23.898 14.886 24.15 14.97 24.406 15.058C24.666 15.146 24.918 15.246 25.162 15.358C25.41 15.466 25.63 15.604 25.822 15.772C26.018 15.94 26.174 16.146 26.29 16.39C26.41 16.634 26.47 16.934 26.47 17.29C26.47 17.666 26.406 18.02 26.278 18.352C26.15 18.68 25.962 18.966 25.714 19.21C25.47 19.454 25.168 19.646 24.808 19.786C24.452 19.926 24.046 19.996 23.59 19.996C23.03 19.996 22.522 19.896 22.066 19.696C21.61 19.492 21.22 19.218 20.896 18.874L21.232 18.322C21.264 18.278 21.302 18.242 21.346 18.214C21.394 18.182 21.446 18.166 21.502 18.166C21.554 18.166 21.612 18.188 21.676 18.232C21.744 18.272 21.82 18.324 21.904 18.388C21.988 18.452 22.084 18.522 22.192 18.598C22.3 18.674 22.422 18.744 22.558 18.808C22.698 18.872 22.856 18.926 23.032 18.97C23.208 19.01 23.406 19.03 23.626 19.03C23.902 19.03 24.148 18.992 24.364 18.916C24.58 18.84 24.762 18.734 24.91 18.598C25.062 18.458 25.178 18.292 25.258 18.1C25.338 17.908 25.378 17.694 25.378 17.458C25.378 17.198 25.318 16.986 25.198 16.822C25.082 16.654 24.928 16.514 24.736 16.402C24.544 16.29 24.324 16.196 24.076 16.12C23.828 16.04 23.576 15.96 23.32 15.88C23.064 15.796 22.812 15.7 22.564 15.592C22.316 15.484 22.096 15.344 21.904 15.172C21.712 15 21.556 14.786 21.436 14.53C21.32 14.27 21.262 13.95 21.262 13.57C21.262 13.266 21.32 12.972 21.436 12.688C21.556 12.404 21.728 12.152 21.952 11.932C22.18 11.712 22.458 11.536 22.786 11.404C23.118 11.272 23.498 11.206 23.926 11.206C24.406 11.206 24.842 11.282 25.234 11.434C25.63 11.586 25.978 11.806 26.278 12.094L25.996 12.646ZM31.0736 17.164C30.5816 17.18 30.1616 17.22 29.8136 17.284C29.4696 17.344 29.1876 17.424 28.9676 17.524C28.7516 17.624 28.5936 17.742 28.4936 17.878C28.3976 18.014 28.3496 18.166 28.3496 18.334C28.3496 18.494 28.3756 18.632 28.4276 18.748C28.4796 18.864 28.5496 18.96 28.6376 19.036C28.7296 19.108 28.8356 19.162 28.9556 19.198C29.0796 19.23 29.2116 19.246 29.3516 19.246C29.5396 19.246 29.7116 19.228 29.8676 19.192C30.0236 19.152 30.1696 19.096 30.3056 19.024C30.4456 18.952 30.5776 18.866 30.7016 18.766C30.8296 18.666 30.9536 18.552 31.0736 18.424V17.164ZM27.6236 14.68C27.9596 14.356 28.3216 14.114 28.7096 13.954C29.0976 13.794 29.5276 13.714 29.9996 13.714C30.3396 13.714 30.6416 13.77 30.9056 13.882C31.1696 13.994 31.3916 14.15 31.5716 14.35C31.7516 14.55 31.8876 14.792 31.9796 15.076C32.0716 15.36 32.1176 15.672 32.1176 16.012V19.9H31.6436C31.5396 19.9 31.4596 19.884 31.4036 19.852C31.3476 19.816 31.3036 19.748 31.2716 19.648L31.1516 19.072C30.9916 19.22 30.8356 19.352 30.6836 19.468C30.5316 19.58 30.3716 19.676 30.2036 19.756C30.0356 19.832 29.8556 19.89 29.6636 19.93C29.4756 19.974 29.2656 19.996 29.0336 19.996C28.7976 19.996 28.5756 19.964 28.3676 19.9C28.1596 19.832 27.9776 19.732 27.8216 19.6C27.6696 19.468 27.5476 19.302 27.4556 19.102C27.3676 18.898 27.3236 18.658 27.3236 18.382C27.3236 18.142 27.3896 17.912 27.5216 17.692C27.6536 17.468 27.8676 17.27 28.1636 17.098C28.4596 16.926 28.8456 16.786 29.3216 16.678C29.7976 16.566 30.3816 16.502 31.0736 16.486V16.012C31.0736 15.54 30.9716 15.184 30.7676 14.944C30.5636 14.7 30.2656 14.578 29.8736 14.578C29.6096 14.578 29.3876 14.612 29.2076 14.68C29.0316 14.744 28.8776 14.818 28.7456 14.902C28.6176 14.982 28.5056 15.056 28.4096 15.124C28.3176 15.188 28.2256 15.22 28.1336 15.22C28.0616 15.22 27.9996 15.202 27.9476 15.166C27.8956 15.126 27.8516 15.078 27.8156 15.022L27.6236 14.68ZM38.8235 13.822L36.3455 19.9H35.3855L32.9075 13.822H33.7775C33.8655 13.822 33.9375 13.844 33.9935 13.888C34.0495 13.932 34.0875 13.984 34.1075 14.044L35.6495 17.956C35.6975 18.104 35.7395 18.248 35.7755 18.388C35.8115 18.528 35.8455 18.668 35.8775 18.808C35.9095 18.668 35.9435 18.528 35.9795 18.388C36.0155 18.248 36.0595 18.104 36.1115 17.956L37.6715 14.044C37.6955 13.98 37.7355 13.928 37.7915 13.888C37.8475 13.844 37.9135 13.822 37.9895 13.822H38.8235ZM43.707 16.198C43.707 15.95 43.671 15.724 43.599 15.52C43.531 15.312 43.429 15.134 43.293 14.986C43.161 14.834 42.999 14.718 42.807 14.638C42.615 14.554 42.397 14.512 42.153 14.512C41.641 14.512 41.235 14.662 40.935 14.962C40.639 15.258 40.455 15.67 40.383 16.198H43.707ZM44.571 19.048C44.439 19.208 44.281 19.348 44.097 19.468C43.913 19.584 43.715 19.68 43.503 19.756C43.295 19.832 43.079 19.888 42.855 19.924C42.631 19.964 42.409 19.984 42.189 19.984C41.769 19.984 41.381 19.914 41.025 19.774C40.673 19.63 40.367 19.422 40.107 19.15C39.851 18.874 39.651 18.534 39.507 18.13C39.363 17.726 39.291 17.262 39.291 16.738C39.291 16.314 39.355 15.918 39.483 15.55C39.615 15.182 39.803 14.864 40.047 14.596C40.291 14.324 40.589 14.112 40.941 13.96C41.293 13.804 41.689 13.726 42.129 13.726C42.493 13.726 42.829 13.788 43.137 13.912C43.449 14.032 43.717 14.208 43.941 14.44C44.169 14.668 44.347 14.952 44.475 15.292C44.603 15.628 44.667 16.012 44.667 16.444C44.667 16.612 44.649 16.724 44.613 16.78C44.577 16.836 44.509 16.864 44.409 16.864H40.347C40.359 17.248 40.411 17.582 40.503 17.866C40.599 18.15 40.731 18.388 40.899 18.58C41.067 18.768 41.267 18.91 41.499 19.006C41.731 19.098 41.991 19.144 42.279 19.144C42.547 19.144 42.777 19.114 42.969 19.054C43.165 18.99 43.333 18.922 43.473 18.85C43.613 18.778 43.729 18.712 43.821 18.652C43.917 18.588 43.999 18.556 44.067 18.556C44.155 18.556 44.223 18.59 44.271 18.658L44.571 19.048ZM54.3111 19.084V19.9H49.7031V19.084H51.5451V13.222C51.5451 13.046 51.5511 12.868 51.5631 12.688L50.0331 14.002C49.9811 14.046 49.9291 14.074 49.8771 14.086C49.8251 14.094 49.7771 14.094 49.7331 14.086C49.6891 14.078 49.6471 14.062 49.6071 14.038C49.5711 14.014 49.5431 13.988 49.5231 13.96L49.1871 13.498L51.7491 11.284H52.6191V19.084H54.3111ZM57.3361 14.548C57.7841 14.452 58.1961 14.404 58.5721 14.404C59.0201 14.404 59.4161 14.47 59.7601 14.602C60.1041 14.734 60.3901 14.916 60.6181 15.148C60.8501 15.38 61.0241 15.654 61.1401 15.97C61.2601 16.286 61.3201 16.63 61.3201 17.002C61.3201 17.458 61.2401 17.87 61.0801 18.238C60.9241 18.606 60.7061 18.922 60.4261 19.186C60.1501 19.446 59.8241 19.646 59.4481 19.786C59.0721 19.926 58.6661 19.996 58.2301 19.996C57.9781 19.996 57.7361 19.97 57.5041 19.918C57.2721 19.87 57.0541 19.804 56.8501 19.72C56.6501 19.636 56.4641 19.54 56.2921 19.432C56.1201 19.324 55.9681 19.21 55.8361 19.09L56.1661 18.634C56.2381 18.53 56.3321 18.478 56.4481 18.478C56.5281 18.478 56.6181 18.51 56.7181 18.574C56.8181 18.634 56.9401 18.702 57.0841 18.778C57.2281 18.854 57.3961 18.924 57.5881 18.988C57.7841 19.048 58.0161 19.078 58.2841 19.078C58.5841 19.078 58.8541 19.03 59.0941 18.934C59.3341 18.838 59.5401 18.702 59.7121 18.526C59.8841 18.346 60.0161 18.132 60.1081 17.884C60.2001 17.636 60.2461 17.358 60.2461 17.05C60.2461 16.782 60.2061 16.54 60.1261 16.324C60.0501 16.108 59.9321 15.924 59.7721 15.772C59.6161 15.62 59.4201 15.502 59.1841 15.418C58.9481 15.334 58.6721 15.292 58.3561 15.292C58.1401 15.292 57.9141 15.31 57.6781 15.346C57.4461 15.382 57.2081 15.44 56.9641 15.52L56.2921 15.322L56.9821 11.302H61.0561V11.77C61.0561 11.922 61.0081 12.048 60.9121 12.148C60.8201 12.244 60.6601 12.292 60.4321 12.292H57.7321L57.3361 14.548ZM66.457 13.378C66.457 13.714 66.405 14.016 66.301 14.284C66.197 14.548 66.057 14.772 65.881 14.956C65.709 15.136 65.507 15.274 65.275 15.37C65.047 15.466 64.805 15.514 64.549 15.514C64.281 15.514 64.031 15.466 63.799 15.37C63.567 15.274 63.365 15.136 63.193 14.956C63.025 14.772 62.893 14.548 62.797 14.284C62.701 14.016 62.653 13.714 62.653 13.378C62.653 13.034 62.701 12.728 62.797 12.46C62.893 12.192 63.025 11.966 63.193 11.782C63.365 11.598 63.567 11.458 63.799 11.362C64.031 11.266 64.281 11.218 64.549 11.218C64.821 11.218 65.073 11.266 65.305 11.362C65.537 11.458 65.739 11.598 65.911 11.782C66.083 11.966 66.217 12.192 66.313 12.46C66.409 12.728 66.457 13.034 66.457 13.378ZM65.629 13.378C65.629 13.114 65.601 12.89 65.545 12.706C65.489 12.522 65.411 12.372 65.311 12.256C65.215 12.136 65.101 12.05 64.969 11.998C64.837 11.946 64.697 11.92 64.549 11.92C64.401 11.92 64.263 11.946 64.135 11.998C64.007 12.05 63.895 12.136 63.799 12.256C63.703 12.372 63.627 12.522 63.571 12.706C63.515 12.89 63.487 13.114 63.487 13.378C63.487 13.638 63.515 13.86 63.571 14.044C63.627 14.224 63.703 14.372 63.799 14.488C63.895 14.6 64.007 14.682 64.135 14.734C64.263 14.782 64.401 14.806 64.549 14.806C64.697 14.806 64.837 14.782 64.969 14.734C65.101 14.682 65.215 14.6 65.311 14.488C65.411 14.372 65.489 14.224 65.545 14.044C65.601 13.86 65.629 13.638 65.629 13.378ZM69.499 11.482C69.539 11.434 69.585 11.392 69.637 11.356C69.693 11.32 69.767 11.302 69.859 11.302H70.633L64.345 19.726C64.309 19.778 64.263 19.82 64.207 19.852C64.151 19.884 64.083 19.9 64.003 19.9H63.217L69.499 11.482ZM71.215 17.872C71.215 18.208 71.163 18.508 71.059 18.772C70.955 19.036 70.815 19.26 70.639 19.444C70.467 19.624 70.265 19.762 70.033 19.858C69.805 19.954 69.563 20.002 69.307 20.002C69.035 20.002 68.783 19.954 68.551 19.858C68.323 19.762 68.123 19.624 67.951 19.444C67.783 19.26 67.651 19.036 67.555 18.772C67.459 18.508 67.411 18.208 67.411 17.872C67.411 17.528 67.459 17.222 67.555 16.954C67.651 16.682 67.783 16.454 67.951 16.27C68.123 16.086 68.323 15.946 68.551 15.85C68.783 15.754 69.035 15.706 69.307 15.706C69.575 15.706 69.825 15.754 70.057 15.85C70.293 15.946 70.495 16.086 70.663 16.27C70.835 16.454 70.969 16.682 71.065 16.954C71.165 17.222 71.215 17.528 71.215 17.872ZM70.387 17.872C70.387 17.608 70.359 17.384 70.303 17.2C70.247 17.012 70.169 16.86 70.069 16.744C69.973 16.628 69.859 16.544 69.727 16.492C69.595 16.44 69.455 16.414 69.307 16.414C69.159 16.414 69.019 16.44 68.887 16.492C68.759 16.544 68.647 16.628 68.551 16.744C68.455 16.86 68.379 17.012 68.323 17.2C68.271 17.384 68.245 17.608 68.245 17.872C68.245 18.132 68.271 18.352 68.323 18.532C68.379 18.712 68.455 18.86 68.551 18.976C68.647 19.088 68.759 19.17 68.887 19.222C69.019 19.27 69.159 19.294 69.307 19.294C69.455 19.294 69.595 19.27 69.727 19.222C69.859 19.17 69.973 19.088 70.069 18.976C70.169 18.86 70.247 18.712 70.303 18.532C70.359 18.352 70.387 18.132 70.387 17.872Z" fill="white"/>
</svg>
