<svg width="97" height="40" viewBox="0 0 97 40" fill="none" xmlns="http://www.w3.org/2000/svg">
<path d="M15.8223 39V31.2217H0.00195312V24.7354L16.7715 0.1875H22.9941V24.709H27.793V31.2217H22.9941V39H15.8223ZM15.8223 24.709V11.499L6.93652 24.709H15.8223ZM44.357 0.1875C48.1011 0.1875 51.0279 1.52344 53.1372 4.19531C55.6509 7.35938 56.9077 12.6064 56.9077 19.9365C56.9077 27.249 55.6421 32.5049 53.1109 35.7041C51.0191 38.3408 48.1011 39.6592 44.357 39.6592C40.5952 39.6592 37.563 38.2178 35.2603 35.335C32.9575 32.4346 31.8062 27.2754 31.8062 19.8574C31.8062 12.5801 33.0718 7.3418 35.603 4.14258C37.6948 1.50586 40.6128 0.1875 44.357 0.1875ZM44.357 6.33105C43.4605 6.33105 42.6607 6.62109 41.9575 7.20117C41.2544 7.76367 40.7095 8.7832 40.3228 10.2598C39.813 12.1758 39.5581 15.4014 39.5581 19.9365C39.5581 24.4717 39.7866 27.5918 40.2437 29.2969C40.7007 30.9844 41.272 32.1094 41.9575 32.6719C42.6607 33.2344 43.4605 33.5156 44.357 33.5156C45.2534 33.5156 46.0532 33.2344 46.7564 32.6719C47.4595 32.0918 48.0044 31.0635 48.3911 29.5869C48.9009 27.6885 49.1558 24.4717 49.1558 19.9365C49.1558 15.4014 48.9273 12.29 48.4702 10.6025C48.0132 8.89746 47.4331 7.76367 46.73 7.20117C46.0445 6.62109 45.2534 6.33105 44.357 6.33105Z" fill="white"/>
<path d="M65.9014 4.66504C65.9014 3.5332 66.1271 2.66732 66.5786 2.06738C67.0301 1.46745 67.5837 1.16748 68.2393 1.16748C68.9196 1.16748 69.4948 1.46745 69.9648 2.06738C70.4349 2.66732 70.6699 3.56413 70.6699 4.75781C70.6699 5.92676 70.4349 6.82048 69.9648 7.43896C69.4948 8.05127 68.9258 8.35742 68.2578 8.35742C67.6022 8.35742 67.0456 8.05436 66.5879 7.44824C66.1302 6.83594 65.9014 5.9082 65.9014 4.66504ZM68.2856 2.31787C67.9455 2.31787 67.661 2.50033 67.4321 2.86523C67.2095 3.22396 67.0981 3.85791 67.0981 4.76709C67.0981 5.67627 67.2095 6.31022 67.4321 6.66895C67.661 7.02767 67.9548 7.20703 68.3135 7.20703C68.6413 7.20703 68.9165 7.02767 69.1392 6.66895C69.368 6.30404 69.4824 5.67008 69.4824 4.76709C69.4824 3.8641 69.368 3.23014 69.1392 2.86523C68.9103 2.50033 68.6258 2.31787 68.2856 2.31787ZM68.2856 15.501L74.3901 1.16748H75.5034L69.4268 15.501H68.2856ZM73.1191 11.8086C73.1191 10.6768 73.3449 9.81087 73.7964 9.21094C74.2479 8.611 74.7983 8.31104 75.4478 8.31104C76.1343 8.31104 76.7126 8.611 77.1826 9.21094C77.6527 9.80469 77.8877 10.6984 77.8877 11.8921C77.8877 13.0672 77.6496 13.964 77.1733 14.5825C76.7033 15.1948 76.1374 15.501 75.4756 15.501C74.82 15.501 74.2633 15.1948 73.8057 14.5825C73.348 13.9702 73.1191 13.0456 73.1191 11.8086ZM75.5034 9.46143C75.1571 9.46143 74.8695 9.64388 74.6406 10.0088C74.418 10.3675 74.3066 11.0015 74.3066 11.9106C74.3066 12.8198 74.4211 13.4538 74.6499 13.8125C74.8787 14.1712 75.1725 14.3506 75.5312 14.3506C75.8529 14.3506 76.125 14.1681 76.3477 13.8032C76.5765 13.4383 76.6909 12.8044 76.6909 11.9014C76.6909 10.9984 76.5765 10.3675 76.3477 10.0088C76.125 9.64388 75.8436 9.46143 75.5034 9.46143ZM65.8179 31.376C65.8179 29.0566 66.3281 27.2754 67.3486 26.0322C68.3691 24.7829 69.6401 24.1582 71.1616 24.1582C72.145 24.1582 73.0418 24.4365 73.8521 24.9932C74.6623 25.5498 75.3024 26.36 75.7725 27.4238C76.2487 28.4814 76.4868 29.7432 76.4868 31.209C76.4868 33.2253 76.0291 34.8674 75.1138 36.1353C74.1056 37.533 72.7852 38.2319 71.1523 38.2319C69.5072 38.2319 68.1836 37.5145 67.1816 36.0796C66.2725 34.7808 65.8179 33.2129 65.8179 31.376ZM67.3394 31.4038C67.3394 33.0799 67.7074 34.3818 68.4434 35.3096C69.1855 36.2311 70.0854 36.6919 71.1431 36.6919C72.2254 36.6919 73.1315 36.2249 73.8613 35.291C74.5973 34.3571 74.9653 32.984 74.9653 31.1719C74.9653 30.0029 74.7767 28.9577 74.3994 28.0361C74.1087 27.3311 73.6696 26.7682 73.082 26.3477C72.5007 25.9209 71.8636 25.7075 71.1709 25.7075C70.0576 25.7075 69.1392 26.1714 68.4155 27.0991C67.6981 28.0269 67.3394 29.4618 67.3394 31.4038ZM78.9522 38V24.3994H86.4761V26.0044H80.4273V30.2163H85.6597V31.8213H80.4273V38H78.9522ZM88.9507 38V24.3994H96.4746V26.0044H90.4258V30.2163H95.6582V31.8213H90.4258V38H88.9507Z" fill="white"/>
</svg>
