<svg width="35" height="35" viewBox="0 0 35 35" fill="none" xmlns="http://www.w3.org/2000/svg">
<rect x="0.5" y="0.5" width="34" height="34" rx="17" fill="#F7F7F8"/>
<rect x="0.5" y="0.5" width="34" height="34" rx="17" stroke="#E9E9E9"/>
<g clip-path="url(#clip0_8330_1095)">
<path d="M14.6667 13.6667V12.3333C14.6667 11.7289 14.8156 11.1711 15.1133 10.66C15.4111 10.1489 15.8156 9.74444 16.3267 9.44667C16.8378 9.14889 17.3956 9 18 9C18.6044 9 19.1622 9.14889 19.6733 9.44667C20.1844 9.74444 20.5889 10.1489 20.8867 10.66C21.1844 11.1711 21.3333 11.7289 21.3333 12.3333V13.6667H23.3333C23.52 13.6667 23.6778 13.7311 23.8067 13.86C23.9356 13.9889 24 14.1467 24 14.3333V22.3333C24 22.52 23.9356 22.6778 23.8067 22.8067C23.6778 22.9356 23.52 23 23.3333 23H12.6667C12.48 23 12.3222 22.9356 12.1933 22.8067C12.0644 22.6778 12 22.52 12 22.3333V14.3333C12 14.1467 12.0644 13.9889 12.1933 13.86C12.3222 13.7311 12.48 13.6667 12.6667 13.6667H14.6667ZM14.6667 15H13.3333V21.6667H22.6667V15H21.3333V16.3333H20V15H16V16.3333H14.6667V15ZM16 13.6667H20V12.3333C20 11.9689 19.9111 11.6333 19.7333 11.3267C19.5556 11.02 19.3133 10.7778 19.0067 10.6C18.7 10.4222 18.3644 10.3333 18 10.3333C17.6356 10.3333 17.3 10.4222 16.9933 10.6C16.6867 10.7778 16.4444 11.02 16.2667 11.3267C16.0889 11.6333 16 11.9689 16 12.3333V13.6667Z" fill="#F53E32"/>
</g>
<defs>
<clipPath id="clip0_8330_1095">
<rect width="16.48" height="16" fill="white" transform="matrix(1 0 0 -1 12 24)"/>
</clipPath>
</defs>
</svg>
