<svg width="145" height="66" viewBox="0 0 145 66" fill="none" xmlns="http://www.w3.org/2000/svg">
<path d="M54.7093 39.4474C54.4746 39.4474 54.2399 39.3514 54.0052 39.1594C53.7812 38.9781 53.5839 38.6741 53.4132 38.2474C53.2426 37.8207 53.1252 37.2554 53.0613 36.5514C53.0079 36.1247 52.9013 35.7887 52.7412 35.5434C52.6026 35.3514 52.5333 35.1487 52.5333 34.9354C52.5333 34.7754 52.5973 34.5887 52.7252 34.3754C52.7892 34.2794 52.8319 34.1781 52.8532 34.0714C52.8853 33.9647 52.9013 33.7781 52.9013 33.5114L52.8532 31.1434C52.8532 30.8341 52.7572 30.5514 52.5652 30.2954C52.3519 29.9967 52.2452 29.7247 52.2452 29.4794C52.2452 29.2874 52.2879 29.1114 52.3733 28.9514C52.4586 28.7914 52.5546 28.6367 52.6612 28.4874C52.7679 28.3381 52.8532 28.1941 52.9173 28.0554C53.0026 27.8527 53.1519 27.6874 53.3652 27.5594C53.5786 27.4314 53.7973 27.3674 54.0213 27.3674C54.1919 27.3674 54.3519 27.4101 54.5012 27.4954C54.6506 27.5701 54.9172 27.6074 55.3012 27.6074C55.6959 27.6074 56.1706 27.5861 56.7253 27.5434C57.3866 27.4901 58.0426 27.4634 58.6932 27.4634C59.1093 27.4634 59.4986 27.4847 59.8613 27.5274C60.2239 27.5701 60.5333 27.6501 60.7893 27.7674C61.0559 27.8741 61.2532 28.0234 61.3813 28.2154C61.5092 28.3967 61.5732 28.5781 61.5732 28.7594C61.5732 29.0047 61.4772 29.2234 61.2852 29.4154C61.0933 29.5967 60.8212 29.6874 60.4692 29.6874L60.1973 29.6714C59.7706 29.6181 59.3386 29.5914 58.9012 29.5914C58.0159 29.5914 57.1306 29.6607 56.2453 29.7994H56.2292C55.9306 29.8207 55.7386 29.8687 55.6533 29.9434C55.5679 30.0074 55.5253 30.1941 55.5253 30.5034L55.5412 31.6234H55.6053C55.6053 31.9007 55.5999 32.1407 55.5893 32.3434V32.7114C55.5893 32.9674 55.6106 33.1381 55.6533 33.2234C55.6959 33.2981 55.7866 33.3354 55.9253 33.3354C56.0319 33.3354 56.1546 33.3247 56.2932 33.3034C56.4426 33.2821 56.6079 33.2661 56.7893 33.2554L57.5412 33.1914C58.0959 33.1381 58.5226 33.1114 58.8212 33.1114C59.1839 33.1114 59.4772 33.1807 59.7012 33.3194C60.0639 33.5754 60.2453 33.8581 60.2453 34.1674C60.2453 34.4341 60.1226 34.6794 59.8772 34.9034C59.6426 35.1274 59.3013 35.2714 58.8533 35.3354L57.5892 35.4794C56.7999 35.5434 56.2666 35.6181 55.9893 35.7034C55.7119 35.7887 55.5732 35.9807 55.5732 36.2794C55.5732 36.4607 55.6052 36.7114 55.6693 37.0314C55.7652 37.5754 55.8132 37.9327 55.8132 38.1034C55.8132 38.4874 55.7012 38.8074 55.4772 39.0634C55.2533 39.3194 54.9973 39.4474 54.7093 39.4474ZM76.0239 39.4634C75.4905 39.4634 74.9839 39.3407 74.5039 39.0954C74.0239 38.8501 73.6132 38.4661 73.2719 37.9434C72.7599 37.1327 72.5039 36.1141 72.5039 34.8874C72.5039 34.3114 72.5465 33.7247 72.6319 33.1274C72.7172 32.5194 72.8132 31.9221 72.9199 31.3354C73.0159 30.8127 73.1012 30.3114 73.1759 29.8314C73.2505 29.3407 73.2879 28.8874 73.2879 28.4714V28.3594C73.2772 28.0607 73.0639 27.9114 72.6479 27.9114C72.1145 27.9114 71.4105 28.1087 70.5359 28.5034C69.6719 28.8981 68.9732 29.3034 68.4399 29.7194C68.1092 29.9647 67.9439 30.1727 67.9439 30.3434C67.9439 30.4287 67.9919 30.5301 68.0879 30.6474C68.1945 30.7541 68.3385 30.8874 68.5199 31.0474C68.8079 31.2927 69.1865 31.6714 69.6559 32.1834C70.3599 32.9727 70.7119 33.8101 70.7119 34.6954C70.7119 35.6767 70.3439 36.5407 69.6079 37.2874C68.6479 38.2581 67.4959 38.7434 66.1519 38.7434C65.2559 38.7434 64.5359 38.5141 63.9919 38.0554C63.4479 37.5861 63.0532 36.9781 62.8079 36.2314C62.5625 35.4847 62.4399 34.7007 62.4399 33.8794C62.4399 32.9941 62.5572 32.1407 62.7919 31.3194C63.0265 30.4874 63.3465 29.8047 63.7519 29.2714C64.1572 28.7381 64.6052 28.4714 65.0959 28.4714C65.2345 28.4714 65.3732 28.4927 65.5119 28.5354H65.5279C65.6452 28.5354 65.9279 28.3647 66.3759 28.0234C66.7812 27.7141 67.2985 27.3621 67.9279 26.9674C68.5679 26.5621 69.2825 26.2101 70.0719 25.9114C70.8719 25.6021 71.7145 25.4474 72.5999 25.4474C72.8985 25.4474 73.2025 25.4687 73.5119 25.5114C74.2479 25.6394 74.7812 25.8847 75.1119 26.2474C75.4532 26.5994 75.6719 26.9994 75.7679 27.4474C75.8745 27.8954 75.9332 28.3221 75.9439 28.7274C75.9652 29.0367 75.9972 29.2927 76.0399 29.4954C76.0932 29.6981 76.1945 29.8154 76.3439 29.8474C77.1332 29.9861 77.8905 30.2687 78.6159 30.6954C79.3412 31.1221 79.9439 31.6607 80.4239 32.3114C80.9039 32.9514 81.1439 33.6554 81.1439 34.4234C81.1439 34.7754 81.0852 35.1327 80.9679 35.4954C80.5305 36.7007 79.8425 37.6607 78.9039 38.3754C77.9652 39.1007 77.0052 39.4634 76.0239 39.4634ZM66.5199 35.7674C66.8292 35.7674 67.1119 35.6447 67.3679 35.3994C67.6345 35.1434 67.7679 34.8661 67.7679 34.5674C67.7679 34.4394 67.7359 34.3114 67.6719 34.1834C67.5545 34.0021 67.2452 33.6447 66.7439 33.1114C66.1359 32.4714 65.7305 32.1514 65.5279 32.1514C65.3785 32.1514 65.3039 32.5887 65.3039 33.4634C65.3039 34.3274 65.4265 34.9301 65.6719 35.2714C65.9279 35.6021 66.2105 35.7674 66.5199 35.7674ZM76.2959 36.5194C76.7012 36.5194 77.1119 36.2847 77.5279 35.8154C77.9439 35.3354 78.1519 34.8661 78.1519 34.4074C78.1519 34.1514 78.0665 33.9274 77.8959 33.7354C77.3092 33.1061 76.5679 32.6421 75.6719 32.3434C75.4799 33.3247 75.3839 34.1194 75.3839 34.7274C75.3839 35.3887 75.4745 35.8527 75.6559 36.1194C75.8372 36.3861 76.0505 36.5194 76.2959 36.5194ZM91.8398 39.2874C91.4878 39.2874 91.1678 39.1327 90.8798 38.8234C90.6345 38.5034 90.4638 38.1621 90.3678 37.7994C90.2825 37.4261 90.2238 37.0261 90.1918 36.5994C90.1598 36.1621 90.0905 35.6927 89.9838 35.1914C89.8451 35.2127 89.7011 35.3674 89.5518 35.6554C89.4238 35.9861 89.0611 36.5194 88.4638 37.2554C87.4611 38.3967 86.4531 38.9674 85.4398 38.9674C84.5651 38.9674 83.8345 38.5941 83.2478 37.8474C82.6611 37.0901 82.3678 36.2047 82.3678 35.1914C82.3678 34.5514 82.5065 33.9007 82.7838 33.2394C83.3918 31.7887 84.6558 30.6581 86.5758 29.8474C87.2905 29.5701 87.8931 29.4314 88.3838 29.4314C88.4478 29.4314 88.5065 29.4367 88.5598 29.4474H88.7038C88.8425 29.4474 88.9491 29.4154 89.0238 29.3514C89.0985 29.2767 89.1571 29.1167 89.1998 28.8714C89.2531 28.6154 89.3118 28.2207 89.3758 27.6874C89.4398 27.1541 89.5411 26.4341 89.6798 25.5274C89.7651 25.0261 89.9305 24.6581 90.1758 24.4234C90.4318 24.1781 90.7145 24.0554 91.0238 24.0554C91.3011 24.0554 91.5678 24.1461 91.8238 24.3274C92.2505 24.6901 92.5118 25.4847 92.6078 26.7114C92.6825 27.7141 92.7198 28.8501 92.7198 30.1194V30.9834C92.7198 32.1247 92.7358 33.2661 92.7678 34.4074C92.8105 35.5487 92.9065 36.6154 93.0558 37.6074C93.0771 37.7247 93.0878 37.8367 93.0878 37.9434C93.0878 38.3807 92.9598 38.7114 92.7038 38.9354C92.4478 39.1701 92.1598 39.2874 91.8398 39.2874ZM85.5358 36.3594C86.0905 36.3594 86.7358 35.6874 87.4718 34.3434C87.7385 33.8527 87.9785 33.3621 88.1918 32.8714C88.4051 32.3701 88.5118 31.9967 88.5118 31.7514C88.5118 31.6021 88.4585 31.5274 88.3518 31.5274L88.2398 31.5434C87.4398 31.8634 86.7945 32.2527 86.3038 32.7114C85.8238 33.1701 85.4718 33.6447 85.2478 34.1354C85.0345 34.6261 84.9278 35.0581 84.9278 35.4314C84.9278 35.7087 84.9811 35.9327 85.0878 36.1034C85.1945 36.2741 85.3438 36.3594 85.5358 36.3594ZM98.9666 39.5274C98.2732 39.5274 97.8199 38.8661 97.6066 37.5434C97.4572 36.6687 97.3772 35.3407 97.3666 33.5594C97.3666 32.5994 97.3346 31.7834 97.2706 31.1114C97.2172 30.4394 97.0572 30.1034 96.7906 30.1034C96.2359 30.1461 95.7559 30.2261 95.3506 30.3434C95.0199 30.4501 94.7266 30.5034 94.4706 30.5034C94.2572 30.5034 94.0706 30.4501 93.9106 30.3434C93.7506 30.2261 93.6012 30.0181 93.4626 29.7194C93.3666 29.5061 93.3186 29.3141 93.3186 29.1434C93.3186 28.7061 93.5852 28.3754 94.1186 28.1514C94.6412 27.9274 95.3186 27.7674 96.1506 27.6714C96.9826 27.5647 97.8839 27.4794 98.8546 27.4154C100.337 27.3301 101.708 27.1701 102.967 26.9354C103.084 26.9141 103.201 26.9034 103.319 26.9034C103.681 26.9034 103.975 27.0101 104.199 27.2234C104.433 27.4261 104.551 27.6607 104.551 27.9274C104.551 28.2047 104.407 28.4767 104.119 28.7434C103.841 28.9994 103.372 29.1914 102.711 29.3194C101.921 29.4581 101.297 29.5434 100.839 29.5754C100.391 29.6074 100.081 29.6607 99.9106 29.7354C99.7399 29.8101 99.6546 30.0021 99.6546 30.3114C99.6546 30.5354 99.6812 30.8447 99.7346 31.2394C99.8412 31.9327 99.9212 33.0527 99.9746 34.5994C99.9959 35.4421 100.028 36.1514 100.071 36.7274C100.113 37.2394 100.135 37.6714 100.135 38.0234C100.135 38.4501 100.081 38.7754 99.9746 38.9994C99.8679 39.2234 99.6652 39.3781 99.3666 39.4634C99.2279 39.5061 99.0946 39.5274 98.9666 39.5274ZM106.335 39.2394C105.471 39.2394 104.937 38.8821 104.735 38.1674C104.596 37.6981 104.527 37.1701 104.527 36.5834C104.527 36.1141 104.543 35.6341 104.575 35.1434C104.607 34.6954 104.623 34.2901 104.623 33.9274C104.623 33.5434 104.591 33.2234 104.527 32.9674C104.377 32.4234 104.303 31.8687 104.303 31.3034V30.5674C104.303 30.2794 104.399 30.0287 104.591 29.8154C104.793 29.6021 105.039 29.4954 105.327 29.4954C105.561 29.4954 105.812 29.5914 106.079 29.7834C106.345 29.9647 106.532 30.2101 106.639 30.5194C106.681 30.6474 106.729 30.7114 106.783 30.7114C106.868 30.7114 107.055 30.5994 107.343 30.3754C108.057 29.8314 108.751 29.4421 109.423 29.2074C110.095 28.9727 110.708 28.8554 111.263 28.8554C111.945 28.8554 112.495 28.9994 112.911 29.2874C113.337 29.5647 113.551 29.9061 113.551 30.3114C113.551 30.4607 113.519 30.6154 113.455 30.7754C113.337 31.0421 113.199 31.2234 113.039 31.3194C112.879 31.4154 112.703 31.4634 112.511 31.4634C112.351 31.4634 112.175 31.4474 111.983 31.4154C111.791 31.3727 111.593 31.3514 111.391 31.3514C111.209 31.3514 111.023 31.3834 110.831 31.4474C109.785 31.8634 109.023 32.3914 108.543 33.0314C108.073 33.6714 107.769 34.3487 107.631 35.0634C107.503 35.7674 107.433 36.4341 107.423 37.0634C107.401 37.4794 107.364 37.8527 107.311 38.1834C107.268 38.5141 107.172 38.7701 107.023 38.9514C106.884 39.1434 106.655 39.2394 106.335 39.2394ZM117.782 39.1754C116.993 39.1754 116.342 38.9567 115.83 38.5194C115.318 38.0927 114.934 37.5274 114.678 36.8234C114.433 36.1194 114.31 35.3674 114.31 34.5674C114.31 33.3727 114.572 32.2207 115.094 31.1114C115.628 30.0021 116.406 29.2127 117.43 28.7434C117.75 28.6154 118.022 28.5514 118.246 28.5514C118.502 28.5514 118.71 28.6047 118.87 28.7114C119.041 28.8074 119.196 28.9141 119.334 29.0314C119.516 29.2021 119.702 29.3141 119.894 29.3674C120.769 29.5914 121.43 30.1674 121.878 31.0954C122.326 32.0234 122.566 32.9834 122.598 33.9754C122.385 35.6074 121.814 36.8607 120.886 37.7354C119.884 38.6954 118.849 39.1754 117.782 39.1754ZM117.814 36.2314C117.921 36.2314 118.038 36.1994 118.166 36.1354C118.561 35.9114 118.876 35.5807 119.11 35.1434C119.356 34.6954 119.478 34.2314 119.478 33.7514L119.462 33.4314C119.409 32.9727 119.281 32.5621 119.078 32.1994C118.886 31.8367 118.561 31.4101 118.102 30.9194C117.761 31.1541 117.494 31.6074 117.302 32.2794C117.121 32.9514 117.03 33.6287 117.03 34.3114C117.03 34.8341 117.089 35.2874 117.206 35.6714C117.334 36.0447 117.537 36.2314 117.814 36.2314ZM128.081 40.5514C127.302 40.5514 126.635 39.9701 126.081 38.8074C125.718 38.0287 125.323 36.8501 124.897 35.2714C124.683 34.4181 124.465 33.6927 124.241 33.0954C123.985 32.3914 123.857 31.8261 123.857 31.3994C123.857 30.9727 123.953 30.6634 124.145 30.4714C124.337 30.2794 124.561 30.1834 124.817 30.1834C125.083 30.1834 125.35 30.2741 125.617 30.4554C125.883 30.6367 126.081 30.8767 126.209 31.1754C126.785 32.6581 127.206 33.8794 127.473 34.8394C127.633 35.3834 127.766 35.8101 127.873 36.1194C127.99 36.4181 128.113 36.5674 128.241 36.5674C128.422 36.5674 128.667 36.1674 128.977 35.3674C129.222 34.7594 129.745 33.2874 130.545 30.9514C130.769 30.3434 131.03 29.9061 131.329 29.6394C131.627 29.3621 131.921 29.2234 132.209 29.2234C132.497 29.2234 132.742 29.3407 132.945 29.5754C133.147 29.7994 133.249 30.1034 133.249 30.4874C133.249 30.6687 133.217 30.8661 133.153 31.0794C132.769 32.4341 132.353 33.7674 131.905 35.0794C131.467 36.3807 130.998 37.5061 130.497 38.4554C130.006 39.4154 129.494 40.0394 128.961 40.3274C128.641 40.4767 128.347 40.5514 128.081 40.5514ZM139.857 39.3034H139.409C138.182 39.3034 137.185 39.0634 136.417 38.5834C135.66 38.1034 135.1 37.4794 134.737 36.7114C134.385 35.9327 134.209 35.1007 134.209 34.2154C134.209 33.4261 134.337 32.6367 134.593 31.8474C134.86 31.0581 135.228 30.3434 135.697 29.7034C136.177 29.0527 136.748 28.5354 137.409 28.1514C138.081 27.7567 138.822 27.5594 139.633 27.5594C139.878 27.5594 140.134 27.5807 140.401 27.6234C141.361 27.7941 142.049 28.1461 142.465 28.6794C142.892 29.2021 143.105 29.7834 143.105 30.4234C143.105 31.0421 142.945 31.6501 142.625 32.2474C142.305 32.8447 141.873 33.3407 141.329 33.7354C140.785 34.1301 140.177 34.3274 139.505 34.3274C138.961 34.3274 138.39 34.1621 137.793 33.8314C137.75 33.8101 137.702 33.7834 137.649 33.7514C137.606 33.7194 137.558 33.6927 137.505 33.6714C137.462 33.6394 137.42 33.6234 137.377 33.6234C137.292 33.6234 137.249 33.7887 137.249 34.1194C137.249 34.7701 137.494 35.3087 137.985 35.7354C138.486 36.1621 139.11 36.3754 139.857 36.3754C140.593 36.3754 141.334 36.1621 142.081 35.7354C142.262 35.6394 142.438 35.5541 142.609 35.4794C142.79 35.4047 142.998 35.3674 143.233 35.3674L143.441 35.3834C143.836 35.4261 144.129 35.5434 144.321 35.7354C144.513 35.9167 144.609 36.1354 144.609 36.3914C144.609 36.7754 144.412 37.1967 144.017 37.6554C143.633 38.1141 143.084 38.5034 142.369 38.8234C141.654 39.1434 140.817 39.3034 139.857 39.3034ZM139.473 32.0714C139.537 32.0714 139.622 32.0447 139.729 31.9914C140.049 31.8314 140.284 31.6447 140.433 31.4314C140.582 31.2181 140.657 31.0101 140.657 30.8074C140.657 30.6047 140.593 30.4341 140.465 30.2954C140.337 30.1461 140.15 30.0714 139.905 30.0714C139.542 30.0714 139.148 30.2421 138.721 30.5834C138.305 30.9247 138.097 31.1861 138.097 31.3674C138.097 31.4527 138.156 31.5007 138.273 31.5114C138.636 31.5434 138.924 31.6661 139.137 31.8794C139.254 32.0074 139.366 32.0714 139.473 32.0714Z" fill="black"/>
<path d="M40.4889 43.6568C34.469 47.7573 26.2356 46.1953 22.1356 40.1762C18.0355 34.1571 19.5963 25.9235 25.6162 21.8229C31.636 17.7223 39.8694 19.2844 43.9694 25.3035C48.0695 31.3226 46.5079 39.5567 40.4889 43.6568ZM26.153 22.611C20.568 26.4154 19.1201 34.0538 22.9245 39.6388C26.7289 45.2239 34.3678 46.6725 39.952 42.8687C45.5363 39.0648 46.9857 31.4254 43.1813 25.8403C39.377 20.2553 31.738 18.8066 26.153 22.611Z" fill="#CDCDCD"/>
<path d="M42.3491 23.9217L41.9514 23.922C41.5809 23.9221 41.2488 23.8801 40.9953 23.8333C41.031 23.5771 41.1332 23.1313 41.2135 22.8287L41.3155 22.4444L40.9289 22.5361C40.4857 22.6413 40.0813 22.6701 39.8348 22.6755L39.8281 22.6539C39.7765 22.4981 39.7556 21.8666 39.7563 21.4672L39.7573 21.0698L39.4061 21.2567C39.1143 21.4123 38.8316 21.523 38.6077 21.5982C38.6389 21.2735 38.6877 20.9413 38.6892 20.9369L38.7476 20.5436L38.3739 20.6776C37.9154 20.8422 37.4927 20.9141 37.2496 20.9444C37.1889 20.58 37.1479 20.0975 37.1475 20.0921L37.1131 19.6961L36.7799 19.9128C36.5655 20.052 36.3548 20.1649 36.1683 20.2532C36.3113 19.5352 36.365 18.9917 36.3304 18.6355C36.2352 17.6614 36.1501 15.4187 36.1368 15.0571C36.1492 14.9202 36.113 14.6584 35.7215 14.4341C35.488 14.2999 35.1754 14.2081 34.84 14.1763C34.3679 14.1307 33.9296 14.2099 33.6679 14.3881C33.553 14.4664 33.4722 14.5647 33.4311 14.6745C33.2846 14.88 33.0164 15.3741 33.1183 16.1311C33.1664 16.4837 33.2651 16.8723 33.3696 17.2843C33.5309 17.92 33.6983 18.5779 33.6602 19.071C33.6369 19.3688 33.5125 19.8855 33.2974 20.5743C33.1113 20.4112 32.7772 20.0442 32.561 19.7902L32.3026 19.4877L32.158 19.8578C32.0145 20.2262 31.8401 20.5359 31.7036 20.7528C31.4343 20.5225 31.138 20.2344 31.1345 20.231L30.8498 19.9532L30.7395 20.3353C30.6426 20.6719 30.5178 20.966 30.4077 21.1899C30.1318 21.0619 29.7232 20.8275 29.556 20.7288L29.2139 20.5254L29.196 20.9229C29.1806 21.2608 29.131 21.5651 29.0787 21.8054C28.7378 21.6954 28.3425 21.5373 28.338 21.5358L27.9691 21.388L28.0132 21.7832C28.0587 22.1887 28.0467 22.5549 28.0266 22.8074C27.7742 22.7906 27.3012 22.7104 26.9834 22.646L26.5941 22.5668L26.7079 22.9474C26.8235 23.3324 26.8774 23.6902 26.9017 23.9396C26.6568 23.9655 26.1567 23.9606 25.822 23.9465L25.4249 23.9293L25.5976 24.288C25.7879 24.6824 25.9019 25.0583 25.9624 25.3024C25.6994 25.3201 25.267 25.3145 24.9678 25.3024L24.5708 25.2853L24.7437 25.6426C24.9606 26.0928 25.0771 26.5125 25.1305 26.7478C24.8838 26.8044 24.4078 26.865 24.0836 26.8948L23.6879 26.9313L23.907 27.2629C24.1477 27.6264 24.3103 27.9817 24.404 28.2145C24.1886 28.2954 23.6667 28.4121 23.3203 28.4776L22.9297 28.5516L23.1793 28.8612C23.4589 29.2084 23.6549 29.5512 23.7697 29.7765C23.5255 29.8952 23.0893 30.0592 22.8208 30.1523L22.4453 30.2819L22.737 30.5516C23.0029 30.7968 23.2152 31.05 23.3633 31.2458C23.0857 31.3689 22.7002 31.5088 22.5373 31.5651L22.1618 31.6947L22.4535 31.9644C22.7838 32.2691 23.0314 32.5858 23.1744 32.7874C22.8351 32.9367 22.3689 33.0985 22.3632 33.1001L21.9877 33.2297L22.2794 33.4994C22.5516 33.7505 22.7665 34.0076 22.9202 34.2132C22.8337 34.2847 22.6883 34.3951 22.4453 34.5606C22.2465 34.696 22.0797 34.8016 22.0782 34.8027L21.7423 35.0156L22.0888 35.2104C22.4847 35.4329 22.801 35.6869 22.9869 35.8513L22.9777 35.8712C22.9088 36.0204 22.4956 36.4985 22.2244 36.7913L21.9535 37.0827L22.338 37.1833C22.6581 37.2677 22.9401 37.378 23.1563 37.4751C22.913 37.692 22.6506 37.9025 22.6473 37.906L22.3371 38.1548L22.7031 38.3101C23.0904 38.4748 23.4095 38.6712 23.622 38.8163C23.4893 39.0386 23.2188 39.4093 23.0256 39.658L22.7815 39.972L23.1738 40.039C23.5105 40.0961 23.81 40.1854 24.0357 40.2647C23.9953 40.4707 23.789 41.0022 23.6428 41.3416L23.4857 41.7067L23.8817 41.6723C24.2363 41.6422 24.5605 41.6543 24.8047 41.6756C24.6847 41.905 24.4374 42.2895 24.2594 42.5472L24.0336 42.8749L24.4288 42.9194C24.7969 42.9608 25.1226 43.0402 25.3688 43.1146C25.3044 43.3654 25.1523 43.7963 25.0388 44.0885L24.8947 44.4595L25.2893 44.4112C25.7406 44.3562 26.1457 44.3735 26.3924 44.3953L26.397 44.4171C26.4307 44.5783 26.381 45.2079 26.3349 45.6041L26.2891 45.9991L26.6589 45.8529C26.9667 45.7307 27.2602 45.6525 27.4908 45.6022C27.4236 45.9208 27.337 46.2458 27.3367 46.2505L27.2348 46.6348L27.6213 46.5432C28.0318 46.4466 28.4062 46.4155 28.6615 46.4064C28.6857 46.6639 28.6885 47.1235 28.6796 47.4376L28.6692 47.8346L29.0242 47.6564C29.409 47.4637 29.7742 47.3456 30.0229 47.2785C30.1131 47.4944 30.2503 48.0046 30.3293 48.3441L30.4194 48.7317L30.718 48.4692C30.9533 48.2623 31.2273 48.0654 31.507 47.8987L31.5147 47.9049C31.6408 48.01 31.9952 48.5336 32.207 48.8713L32.4175 49.2087L32.6155 48.8636C32.773 48.5892 32.9448 48.354 33.0863 48.178L33.0918 48.181C33.239 48.2536 33.7042 48.6812 33.9884 48.9616L34.2708 49.241L34.3838 48.8595C34.4422 48.6616 34.5163 48.46 34.6034 48.2608C34.8105 48.3312 35.3012 48.5926 35.6149 48.7745L35.9593 48.973L35.9718 48.5757C35.9748 48.4634 35.983 48.3487 35.9944 48.2318C36.2373 48.3381 36.6027 48.5291 36.855 48.6709L37.2014 48.8657L37.2092 48.4683C37.2155 48.1605 37.2515 47.8779 37.2912 47.6542C37.4767 47.6995 38.014 47.961 38.3525 48.1408L38.7032 48.327L38.7021 47.9299C38.7014 47.5917 38.7369 47.2833 38.7749 47.0505C39.0668 47.187 39.3555 47.3405 39.3592 47.3425L39.7105 47.5295L39.7094 47.1324C39.7083 46.7102 39.7619 46.3384 39.8128 46.0843C40.1144 46.1233 40.5811 46.226 40.7707 46.2707L41.157 46.3623L41.0555 45.9779C40.9615 45.6213 40.9183 45.2892 40.899 45.0455C41.2027 45.0659 41.6113 45.1218 41.781 45.1472L42.174 45.2069L42.0415 44.8322C41.9919 44.6909 41.9467 44.5444 41.9084 44.3931L42.0017 44.4183L41.9127 44.0322C41.9099 44.0215 41.9077 44.0117 41.9058 44.0005C42.268 44.0266 42.7195 44.0919 42.7247 44.0929L43.1182 44.1499L42.9829 43.776C42.85 43.4074 42.7759 43.0634 42.7364 42.8118C42.8635 42.8082 42.949 42.8068 42.9503 42.807L43.3474 42.8025L43.3405 42.7891C43.5012 42.8114 43.6173 42.8301 43.6186 42.8303L44.0117 42.8934L43.8821 42.5179C43.7249 42.0634 43.6579 41.6464 43.6296 41.3963C43.8009 41.3273 44.4006 41.2348 44.7843 41.1906L45.1791 41.1445L44.9523 40.8181C44.6583 40.3966 44.4731 39.9828 44.3856 39.7627C44.6584 39.6292 45.1062 39.4572 45.2929 39.3891L45.6662 39.253L45.3697 38.9878C45.072 38.7211 44.8392 38.4444 44.6908 38.2499L44.6923 38.2488C44.7911 38.1168 45.2975 37.7388 45.6246 37.5115L45.9515 37.2854L45.5979 37.1034C45.3692 36.9864 45.1417 36.8458 44.9209 36.687L44.8616 36.6399C44.8169 36.6044 44.7731 36.5684 44.7289 36.5302C44.9913 36.3765 45.4712 36.1598 45.6539 36.0809L46.0192 35.923L45.7077 35.6759C45.3657 35.4042 45.1028 35.1183 44.9414 34.9248C45.2153 34.6893 45.5642 34.4289 45.5688 34.4258L45.8878 34.1881L45.5283 34.0192C45.3241 33.923 45.121 33.8101 44.9222 33.6818C45.0602 33.4604 45.3297 33.1018 45.522 32.8617L45.7708 32.5512L45.3803 32.4785C45.0628 32.4197 44.7785 32.3326 44.5598 32.2553C44.7981 32.0044 45.0816 31.7397 45.0857 31.7357L45.3759 31.4641L44.9999 31.336C44.6017 31.2003 44.2685 31.0283 44.0463 30.8989C44.1617 30.668 44.4049 30.2773 44.5789 30.0155L44.7992 29.6847L44.4041 29.6469C44.0853 29.6163 43.797 29.5568 43.5658 29.4961C43.7137 29.2976 44.0509 28.9349 44.2857 28.6988L44.5664 28.4167L44.1856 28.3032C43.7875 28.1845 43.4503 28.0265 43.2285 27.9094C43.3103 27.6775 43.5299 27.2289 43.687 26.9321L43.8732 26.5813L43.4753 26.583C43.1579 26.5843 42.8676 26.5536 42.6429 26.5191C42.657 26.3162 42.8054 25.7548 42.9139 25.3967L43.0286 25.0161L42.6386 25.0943C42.3083 25.1601 42.0018 25.1859 41.7565 25.1927L41.8185 24.9868L41.8094 24.9884C41.9134 24.7573 42.0557 24.474 42.1667 24.2665L42.3542 23.9159L42.3491 23.9217Z" fill="#CBCBCB"/>
<path d="M32.3704 12.9983C32.3704 12.9983 31.9023 13.4842 32.0262 14.4036C32.15 15.323 32.6534 16.5977 32.5853 17.4807C32.5173 18.3637 31.7038 20.5353 31.7038 20.5353L32.7156 22.0207L34.0902 20.9548C34.0902 20.9548 34.9531 18.1549 34.8435 17.0394C34.7339 15.9239 34.6403 13.255 34.6403 13.255L32.3704 12.9983Z" fill="#433709"/>
<path d="M33.2641 13.1031C33.2845 13.6371 33.5385 15.8422 33.6344 16.8158C33.7441 17.9312 32.8811 20.7312 32.8811 20.7312L31.9727 21.2533L32.4799 21.9979L33.8545 20.932C33.8545 20.932 34.7175 18.1321 34.6079 17.0166C34.4982 15.9011 34.4046 13.2322 34.4046 13.2322L33.2654 13.1034L33.2641 13.1031Z" fill="#261C02"/>
<path d="M34.6458 13.3108C34.6177 13.6016 34.0732 13.7884 33.4305 13.726C32.787 13.6642 32.2891 13.377 32.3166 13.0854C32.3447 12.7946 32.8893 12.6078 33.532 12.6702C34.1755 12.732 34.6734 13.0192 34.6458 13.3108Z" fill="#FCD3B3"/>
<path d="M31.9275 19.3812C31.9275 19.3812 27.4836 19.4073 24.1079 25.342C20.733 31.2762 21.2807 36.2572 23.5871 40.5425C25.8927 44.8284 28.5357 46.9145 32.6211 47.2167C36.7058 47.5194 43.3278 41.1922 43.3209 36.8148C43.3121 31.1849 41.7861 26.0826 40.1981 23.7064C38.6102 21.3301 36.3974 20.2127 35.2555 19.7629C34.1149 19.3133 32.891 19.2387 32.891 19.2387L31.9283 19.3807L31.9275 19.3812Z" fill="#4B5B19"/>
<path d="M29.5723 18.8307C29.5723 18.8307 30.3072 19.5475 30.5635 19.6719L30.8191 19.7967L30.3184 20.7755C30.3184 20.7755 29.6269 20.1542 29.6382 20.134C29.6494 20.1138 29.5715 18.8312 29.5715 18.8312L29.5723 18.8307Z" fill="#6B7B3E"/>
<path d="M29.5713 18.8309C29.3442 19.6188 28.9754 20.1872 28.9754 20.1872L30.318 20.7765L29.5719 18.8317L29.5713 18.8309Z" fill="#4B5B19"/>
<path d="M27.9945 19.3779C27.9945 19.3779 28.8766 19.9036 29.155 19.9652L29.4334 20.0268L29.1746 21.0954C29.1746 21.0954 28.3574 20.6517 28.3637 20.6292C28.37 20.6067 27.9953 19.3774 27.9953 19.3774L27.9945 19.3779Z" fill="#6B7B3E"/>
<path d="M27.9947 19.378C27.957 20.1971 27.7317 20.8359 27.7317 20.8359L29.1748 21.0954L27.9947 19.378Z" fill="#4B5B19"/>
<path d="M26.775 20.2241C26.775 20.2241 27.7291 20.6052 28.0126 20.6224L28.2973 20.6399L28.2092 21.7355C28.2092 21.7355 27.3329 21.4253 27.3353 21.402C27.3377 21.3788 26.7758 20.2236 26.7758 20.2236L26.775 20.2241Z" fill="#6B7B3E"/>
<path d="M26.7757 20.224C26.8672 21.0392 26.7436 21.7055 26.7436 21.7055L28.2091 21.7359L26.7749 20.2245L26.7757 20.224Z" fill="#4B5B19"/>
<path d="M23.3887 24.1152C23.3887 24.1152 24.415 24.1584 24.6886 24.0811L24.963 24.0034L25.2436 25.0661C25.2436 25.0661 24.3136 25.0641 24.3084 25.0415C24.3032 25.0189 23.39 24.1155 23.39 24.1155L23.3887 24.1152Z" fill="#6B7B3E"/>
<path d="M23.3889 24.115C23.7452 24.8533 23.8501 25.523 23.8501 25.523L25.2433 25.0651L23.3897 24.1145L23.3889 24.115Z" fill="#4B5B19"/>
<path d="M24.2695 22.7207C24.2695 22.7207 25.2958 22.7639 25.5695 22.6866L25.8439 22.6088L26.1244 23.6716C26.1244 23.6716 25.1944 23.6696 25.1892 23.647C25.1841 23.6244 24.2708 22.721 24.2708 22.721L24.2695 22.7207Z" fill="#6B7B3E"/>
<path d="M24.2698 22.7205C24.6261 23.4588 24.731 24.1285 24.731 24.1285L26.1241 23.6706L24.2706 22.72L24.2698 22.7205Z" fill="#4B5B19"/>
<path d="M25.4238 21.3784C25.4238 21.3784 26.4304 21.5828 26.7133 21.5493L26.9962 21.5157L27.1059 22.6095C27.1059 22.6095 26.1874 22.4611 26.1864 22.4379C26.1854 22.4147 25.4251 21.3787 25.4251 21.3787L25.4238 21.3784Z" fill="#6B7B3E"/>
<path d="M25.4241 21.3785C25.66 22.1636 25.6571 22.8419 25.6571 22.8419L27.1049 22.6093L25.4241 21.3785Z" fill="#4B5B19"/>
<path d="M31.0235 18.3609C31.0235 18.3609 31.69 19.1425 31.9333 19.2894L32.1771 19.437L31.5886 20.3654C31.5886 20.3654 30.9574 19.6824 30.9705 19.6633C30.9836 19.6441 31.0237 18.3596 31.0237 18.3596L31.0235 18.3609Z" fill="#6B7B3E"/>
<path d="M31.0235 18.3611C30.7252 19.1247 30.3052 19.6563 30.3052 19.6563L31.5878 20.366L31.0229 18.3603L31.0235 18.3611Z" fill="#4B5B19"/>
<path d="M20.9785 30.5464C20.9785 30.5464 21.9489 30.2105 22.175 30.0383L22.4018 29.8656L23.0519 30.7516C23.0519 30.7516 22.1857 31.0904 22.173 31.0718C22.1603 31.0531 20.9785 30.5464 20.9785 30.5464Z" fill="#6B7B3E"/>
<path d="M20.9785 30.5464C21.5803 31.1027 21.923 31.6877 21.923 31.6877L23.0519 30.7516L20.9785 30.5464Z" fill="#4B5B19"/>
<path d="M21.2715 29.0928C21.2715 29.0928 22.2419 28.7568 22.4679 28.5847L22.6947 28.412L23.3449 29.298C23.3449 29.298 22.4787 29.6368 22.466 29.6182C22.4533 29.5995 21.2715 29.0928 21.2715 29.0928Z" fill="#6B7B3E"/>
<path d="M21.2715 29.0928C21.8732 29.6491 22.216 30.2341 22.216 30.2341L23.3449 29.298L21.2715 29.0928Z" fill="#4B5B19"/>
<path d="M21.7508 27.3789C21.7508 27.3789 22.7604 27.189 23.009 27.0515L23.2583 26.9135L23.7717 27.8859C23.7717 27.8859 22.8654 28.094 22.855 28.0737C22.8454 28.053 21.75 27.3794 21.75 27.3794L21.7508 27.3789Z" fill="#6B7B3E"/>
<path d="M21.7508 27.3789C22.2653 28.0174 22.5186 28.6463 22.5186 28.6463L23.7717 27.8859L21.7508 27.3789Z" fill="#4B5B19"/>
<path d="M22.5117 25.7534C22.5117 25.7534 23.5346 25.658 23.7948 25.5444L24.0558 25.4303L24.4771 26.446C24.4771 26.446 23.5551 26.5693 23.5471 26.5475C23.5391 26.5257 22.5117 25.7534 22.5117 25.7534Z" fill="#6B7B3E"/>
<path d="M22.5126 25.7534C22.965 26.4375 23.1591 27.0863 23.1591 27.0863L24.4775 26.4451L22.5126 25.7534Z" fill="#4B5B19"/>
<path d="M20.7988 32.1265C20.7988 32.1265 21.7693 31.7905 21.9953 31.6184L22.2221 31.4457L22.8722 32.3317C22.8722 32.3317 22.006 32.6705 21.9934 32.6519C21.9807 32.6332 20.7988 32.1265 20.7988 32.1265Z" fill="#6B7B3E"/>
<path d="M20.7988 32.1265C21.4006 32.6828 21.7433 33.2677 21.7433 33.2677L22.8722 32.3317L20.7988 32.1265Z" fill="#4B5B19"/>
<path d="M20.5568 33.8539C20.5568 33.8539 21.4232 33.3035 21.6037 33.0829L21.7842 32.8622L22.6215 33.5741C22.6215 33.5741 21.857 34.1039 21.8397 34.0884C21.8223 34.073 20.5563 33.8532 20.5563 33.8532L20.5568 33.8539Z" fill="#6B7B3E"/>
<path d="M20.5566 33.854C21.2707 34.2565 21.7397 34.7464 21.7397 34.7464L22.6218 33.5749L20.5574 33.8535L20.5566 33.854Z" fill="#4B5B19"/>
<path d="M20.7545 35.8596C20.7545 35.8596 21.4542 35.1079 21.5722 34.849L21.6916 34.5904L22.6816 35.0675C22.6816 35.0675 22.0758 35.7735 22.0556 35.7622C22.0347 35.7515 20.7545 35.8596 20.7545 35.8596Z" fill="#6B7B3E"/>
<path d="M20.7539 35.8599C21.5466 36.069 22.1237 36.4239 22.1237 36.4239L22.6811 35.0678L20.7539 35.8599Z" fill="#4B5B19"/>
<path d="M21.1642 37.0311C21.1642 37.0311 21.965 36.3879 22.1198 36.1494L22.2745 35.911L23.1849 36.5266C23.1849 36.5266 22.4835 37.1373 22.4651 37.1237C22.4467 37.1101 21.1634 37.0317 21.1634 37.0317L21.1642 37.0311Z" fill="#6B7B3E"/>
<path d="M21.1648 37.0312C21.9193 37.3528 22.4385 37.788 22.4385 37.788L23.1855 36.5266L21.1641 37.0317L21.1648 37.0312Z" fill="#4B5B19"/>
<path d="M21.5931 38.793C21.5931 38.793 22.2234 37.9828 22.319 37.7142L22.4145 37.4457L23.443 37.8341C23.443 37.8341 22.902 38.5902 22.8801 38.5813C22.8589 38.5719 21.5926 38.7922 21.5926 38.7922L21.5931 38.793Z" fill="#6B7B3E"/>
<path d="M21.5945 38.7929C22.4027 38.9313 23.0084 39.2348 23.0084 39.2348L23.4442 37.8353L21.5938 38.7935L21.5945 38.7929Z" fill="#4B5B19"/>
<path d="M22.2602 40.4716C22.2602 40.4716 22.6656 39.5282 22.6904 39.2442L22.7152 38.9601L23.8082 39.0761C23.8082 39.0761 23.4758 39.9448 23.4528 39.9411C23.4298 39.9375 22.2605 40.4703 22.2605 40.4703L22.2602 40.4716Z" fill="#6B7B3E"/>
<path d="M22.2602 40.4717C23.0775 40.4015 23.74 40.5414 23.74 40.5414L23.8074 39.0768L22.2597 40.4709L22.2602 40.4717Z" fill="#4B5B19"/>
<path d="M22.8718 41.7547C22.8718 41.7547 23.4541 40.9091 23.5342 40.6362L23.6144 40.3634L24.6636 40.6922C24.6636 40.6922 24.167 41.4783 24.1447 41.4708C24.1225 41.4632 22.8715 41.756 22.8715 41.756L22.8718 41.7547Z" fill="#6B7B3E"/>
<path d="M22.8711 41.7549C23.6861 41.8466 24.3081 42.114 24.3081 42.114L24.6624 40.6916L22.8711 41.7549Z" fill="#4B5B19"/>
<path d="M23.6995 43.2899C23.6995 43.2899 24.0717 42.3328 24.0863 42.0489L24.1009 41.7649L25.1972 41.8423C25.1972 41.8423 24.8951 42.7222 24.8727 42.7193C24.8494 42.7169 23.6995 43.2899 23.6995 43.2899Z" fill="#6B7B3E"/>
<path d="M23.6989 43.29C24.5127 43.1915 25.1802 43.3086 25.1802 43.3086L25.1965 41.8424L23.6989 43.29Z" fill="#4B5B19"/>
<path d="M25.048 44.7879C25.048 44.7879 25.1658 43.7676 25.1078 43.4888L25.0498 43.2101L26.1307 43.008C26.1307 43.008 26.061 43.9353 26.0381 43.9384C26.0152 43.9415 25.0475 44.7871 25.0475 44.7871L25.048 44.7879Z" fill="#6B7B3E"/>
<path d="M25.0475 44.7877C25.8106 44.4862 26.4852 44.4302 26.4852 44.4302L26.1302 43.0078L25.0475 44.7877Z" fill="#4B5B19"/>
<path d="M26.0731 45.4887C26.0731 45.4887 26.3371 44.4961 26.3199 44.2123L26.3035 43.9279L27.4025 43.8841C27.4025 43.8841 27.1999 44.7916 27.1762 44.7919C27.1533 44.7916 26.0731 45.4887 26.0731 45.4887Z" fill="#6B7B3E"/>
<path d="M26.0739 45.4886C26.8722 45.3005 27.5478 45.3428 27.5478 45.3428L27.4019 43.8837L26.0733 45.4878L26.0739 45.4886Z" fill="#4B5B19"/>
<path d="M27.4618 46.6538C27.4618 46.6538 27.4901 45.6274 27.4079 45.3549L27.3257 45.0823L28.3846 44.7862C28.3846 44.7862 28.3963 45.7161 28.3742 45.722C28.3516 45.7272 27.4623 46.6546 27.4623 46.6546L27.4618 46.6538Z" fill="#6B7B3E"/>
<path d="M27.4618 46.6538C28.1948 46.2863 28.8623 46.1715 28.8623 46.1715L28.3841 44.7853L27.4618 46.6538Z" fill="#4B5B19"/>
<path d="M43.0953 27.2026C43.0953 27.2026 42.3717 27.9308 42.2442 28.1859L42.1175 28.4404L41.1439 27.9306C41.1439 27.9306 41.7728 27.2452 41.7922 27.257C41.8124 27.2683 43.0953 27.2026 43.0953 27.2026Z" fill="#6B7B3E"/>
<path d="M43.096 27.2025C42.3101 26.9682 41.7456 26.5934 41.7456 26.5934L41.1445 27.9305L43.0967 27.2019L43.096 27.2025Z" fill="#4B5B19"/>
<path d="M42.4366 25.4426C42.4366 25.4426 41.9555 26.35 41.9082 26.6311L41.8605 26.9115L40.7809 26.7068C40.7809 26.7068 41.1827 25.8681 41.2054 25.8731C41.2282 25.8781 42.4366 25.4426 42.4366 25.4426Z" fill="#6B7B3E"/>
<path d="M42.4363 25.4425C41.616 25.4465 40.9665 25.2523 40.9665 25.2523L40.7793 26.7064L42.4349 25.4422L42.4363 25.4425Z" fill="#4B5B19"/>
<path d="M41.6252 23.9056C41.6252 23.9056 41.3286 24.8886 41.3356 25.1725L41.3431 25.4573L40.2438 25.4638C40.2438 25.4638 40.4774 24.5635 40.4996 24.5643C40.5225 24.5646 41.6247 23.9048 41.6247 23.9048L41.6252 23.9056Z" fill="#6B7B3E"/>
<path d="M41.6243 23.9057C40.8202 24.0669 40.1462 24.002 40.1462 24.002L40.2426 25.4652L41.6243 23.9057Z" fill="#4B5B19"/>
<path d="M40.9678 25.2703C40.9678 25.2703 40.6712 26.2533 40.6774 26.5378L40.6849 26.8225L39.5856 26.829C39.5856 26.829 39.8192 25.9288 39.8414 25.9296C39.8643 25.9299 40.9665 25.27 40.9665 25.27L40.9678 25.2703Z" fill="#6B7B3E"/>
<path d="M40.968 25.2704C40.1639 25.4317 39.49 25.3667 39.49 25.3667L39.5864 26.83L40.968 25.2704Z" fill="#4B5B19"/>
<path d="M41.1045 26.6258C41.1045 26.6258 40.8079 27.6087 40.8141 27.8932L40.8216 28.178L39.7223 28.1845C39.7223 28.1845 39.9559 27.2842 39.9781 27.2851C40.001 27.2854 41.1032 26.6255 41.1032 26.6255L41.1045 26.6258Z" fill="#6B7B3E"/>
<path d="M41.1047 26.6259C40.3006 26.7871 39.6267 26.7222 39.6267 26.7222L39.7231 28.1854L41.1047 26.6259Z" fill="#4B5B19"/>
<path d="M41.3506 27.8123C41.3506 27.8123 41.054 28.7953 41.0602 29.0798L41.0677 29.3645L39.9684 29.371C39.9684 29.371 40.202 28.4708 40.225 28.4711C40.2479 28.4713 41.3501 27.8115 41.3501 27.8115L41.3506 27.8123Z" fill="#6B7B3E"/>
<path d="M41.3508 27.8124C40.5467 27.9737 39.8728 27.9088 39.8728 27.9088L39.9692 29.372L41.3508 27.8124Z" fill="#4B5B19"/>
<path d="M40.3799 23.8728C40.3799 23.8728 40.0833 24.8558 40.0895 25.1403L40.097 25.425L38.9977 25.4316C38.9977 25.4316 39.2313 24.5313 39.2543 24.5316C39.2772 24.5319 40.3794 23.8721 40.3794 23.8721L40.3799 23.8728Z" fill="#6B7B3E"/>
<path d="M40.3801 23.873C39.576 24.0342 38.9021 23.9693 38.9021 23.9693L38.9985 25.4325L40.3801 23.873Z" fill="#4B5B19"/>
<path d="M39.5108 22.697C39.5108 22.697 39.2141 23.68 39.2203 23.9645L39.2279 24.2493L38.1286 24.2558C38.1286 24.2558 38.3622 23.3555 38.3851 23.3558C38.408 23.3561 39.5102 22.6963 39.5102 22.6963L39.5108 22.697Z" fill="#6B7B3E"/>
<path d="M39.511 22.6972C38.7069 22.8584 38.0329 22.7935 38.0329 22.7935L38.1293 24.2567L39.511 22.6972Z" fill="#4B5B19"/>
<path d="M40.8721 22.6982C40.8721 22.6982 40.3874 23.6036 40.3388 23.8845L40.2898 24.1645L39.2105 23.9551C39.2105 23.9551 39.6159 23.1185 39.6386 23.1235C39.6614 23.1285 40.8721 22.6982 40.8721 22.6982Z" fill="#6B7B3E"/>
<path d="M40.8725 22.6983C40.0522 22.699 39.404 22.5017 39.404 22.5017L39.2108 23.9553L40.8725 22.6983Z" fill="#4B5B19"/>
<path d="M39.8756 21.2667C39.8756 21.2667 39.6129 22.2596 39.6301 22.5434L39.6472 22.8273L38.5486 22.8732C38.5486 22.8732 38.7498 21.9654 38.7735 21.9651C38.7964 21.9654 39.8756 21.2667 39.8756 21.2667Z" fill="#6B7B3E"/>
<path d="M39.8756 21.2667C39.0783 21.4563 38.4019 21.4146 38.4019 21.4146L38.5499 22.8734L39.8756 21.2667Z" fill="#4B5B19"/>
<path d="M38.369 19.9285C38.369 19.9285 38.3662 20.9557 38.4549 21.2261L38.5436 21.4965L37.492 21.8184C37.492 21.8184 37.4572 20.8895 37.48 20.883C37.5021 20.8771 38.369 19.9285 38.369 19.9285Z" fill="#6B7B3E"/>
<path d="M38.3697 19.9286C37.6455 20.3139 36.981 20.4448 36.981 20.4448L37.4927 21.8184L38.3697 19.9286Z" fill="#4B5B19"/>
<path d="M37.2718 19.347C37.2718 19.347 37.1204 20.3629 37.1693 20.6433L37.2182 20.9238L36.1312 21.0902C36.1312 21.0902 36.2314 20.1659 36.2543 20.1628C36.2772 20.1597 37.2718 19.347 37.2718 19.347Z" fill="#6B7B3E"/>
<path d="M37.2726 19.3469C36.5007 19.6237 35.8238 19.6563 35.8238 19.6563L36.132 21.09L37.2726 19.3469Z" fill="#4B5B19"/>
<path d="M35.6863 18.5354C35.6863 18.5354 35.7736 19.5581 35.8854 19.8207L35.9975 20.082L34.9786 20.4952C34.9786 20.4952 34.8628 19.5726 34.8846 19.5646C34.9064 19.5566 35.6863 18.5354 35.6863 18.5354Z" fill="#6B7B3E"/>
<path d="M35.6846 18.5354C34.9972 18.9831 34.3469 19.1715 34.3469 19.1715L34.9777 20.4947L35.6854 18.5348L35.6846 18.5354Z" fill="#4B5B19"/>
<path d="M43.7563 39.9806C43.7563 39.9806 42.7362 40.1003 42.4782 40.2204L42.2201 40.3405L41.7752 39.3352C41.7752 39.3352 42.6938 39.1902 42.7026 39.2115C42.7114 39.2328 43.7563 39.9806 43.7563 39.9806Z" fill="#6B7B3E"/>
<path d="M43.7565 39.9804C43.2878 39.3074 43.0786 38.6632 43.0786 38.6632L41.7754 39.335L43.7565 39.9804Z" fill="#4B5B19"/>
<path d="M44.2249 38.1406C44.2249 38.1406 43.2596 38.4923 43.0367 38.6691L42.8133 38.8452L42.1484 37.9692C42.1484 37.9692 43.0085 37.6164 43.0219 37.6345C43.0352 37.654 44.2251 38.1393 44.2251 38.1393L44.2249 38.1406Z" fill="#6B7B3E"/>
<path d="M44.224 38.1403C43.613 37.5937 43.2609 37.0151 43.2609 37.0151L42.1481 37.9698L44.224 38.1403Z" fill="#4B5B19"/>
<path d="M44.5112 36.2379C44.5112 36.2379 43.6668 36.8221 43.4953 37.0493L43.3237 37.2764L42.4591 36.5979C42.4591 36.5979 43.2022 36.0383 43.2196 36.0537C43.2377 36.0687 44.5112 36.2379 44.5112 36.2379Z" fill="#6B7B3E"/>
<path d="M44.5104 36.2379C43.7807 35.8642 43.2934 35.3925 43.2934 35.3925L42.4583 36.5979L44.5104 36.2379Z" fill="#4B5B19"/>
<path d="M44.5833 34.7439C44.5833 34.7439 43.6407 35.1507 43.4276 35.3402L43.2145 35.5297L42.5 34.6943C42.5 34.6943 43.3384 34.2915 43.3524 34.3103C43.3667 34.3279 44.5823 34.7457 44.5823 34.7457L44.5833 34.7439Z" fill="#6B7B3E"/>
<path d="M44.5829 34.744C43.9413 34.2342 43.5555 33.6763 43.5555 33.6763L42.4999 34.6932L44.5824 34.7433L44.5829 34.744Z" fill="#4B5B19"/>
<path d="M43.3716 34.3948C43.3716 34.3948 42.429 34.8016 42.2159 34.9911L42.0036 35.18L41.2891 34.3447C41.2891 34.3447 42.1275 33.9419 42.1415 33.9607C42.1557 33.9783 43.3713 34.3961 43.3713 34.3961L43.3716 34.3948Z" fill="#6B7B3E"/>
<path d="M43.372 34.3949C42.7298 33.8844 42.3446 33.3272 42.3446 33.3272L41.289 34.3441L43.372 34.3949Z" fill="#4B5B19"/>
<path d="M42.3704 33.3245C42.3704 33.3245 41.4278 33.7313 41.2147 33.9207L41.0016 34.1102L40.2871 33.2749C40.2871 33.2749 41.1255 32.872 41.1395 32.8909C41.1538 32.9085 42.3694 33.3263 42.3694 33.3263L42.3704 33.3245Z" fill="#6B7B3E"/>
<path d="M42.37 33.3246C41.7284 32.8148 41.3426 32.2569 41.3426 32.2569L40.287 33.2737L42.3695 33.3238L42.37 33.3246Z" fill="#4B5B19"/>
<path d="M43.7122 35.7351C43.7122 35.7351 42.7696 36.1419 42.5565 36.3314L42.3434 36.5209L41.6289 35.6855C41.6289 35.6855 42.4673 35.2827 42.4813 35.3016C42.4953 35.3204 43.7112 35.7369 43.7112 35.7369L43.7122 35.7351Z" fill="#6B7B3E"/>
<path d="M43.713 35.7353C43.0713 35.2255 42.6864 34.667 42.6864 34.667L41.6308 35.6839L43.7132 35.734L43.713 35.7353Z" fill="#4B5B19"/>
<path d="M43.3052 37.3655C43.3052 37.3655 42.3626 37.7723 42.1495 37.9618L41.9372 38.1507L41.2227 37.3154C41.2227 37.3154 42.0611 36.9126 42.0751 36.9314C42.0893 36.949 43.3049 37.3668 43.3049 37.3668L43.3052 37.3655Z" fill="#6B7B3E"/>
<path d="M43.3048 37.3657C42.6626 36.8551 42.2782 36.2974 42.2782 36.2974L41.2226 37.3143L43.3056 37.3651L43.3048 37.3657Z" fill="#4B5B19"/>
<path d="M43.0755 38.8767C43.0755 38.8767 42.1329 39.2835 41.9198 39.473L41.7067 39.6625L40.9922 38.8271C40.9922 38.8271 41.8306 38.4243 41.8446 38.4431C41.8589 38.4607 43.0745 38.8786 43.0745 38.8786L43.0755 38.8767Z" fill="#6B7B3E"/>
<path d="M43.0763 38.8769C42.4346 38.3671 42.0497 37.8086 42.0497 37.8086L40.994 38.8255L43.0766 38.8756L43.0763 38.8769Z" fill="#4B5B19"/>
<path d="M44.4458 33.0701C44.4458 33.0701 43.6223 33.6834 43.4591 33.9161L43.296 34.1489L42.408 33.5011C42.408 33.5011 43.131 32.9154 43.1491 32.9303C43.1667 32.9445 44.4466 33.0696 44.4466 33.0696L44.4458 33.0701Z" fill="#6B7B3E"/>
<path d="M44.4464 33.07C43.7045 32.7217 43.2009 32.2678 43.2009 32.2678L42.4086 33.501L44.4472 33.0694L44.4464 33.07Z" fill="#4B5B19"/>
<path d="M44.3542 31.5046C44.3542 31.5046 43.7126 32.3066 43.6134 32.5731L43.5141 32.8396L42.491 32.4374C42.491 32.4374 43.0428 31.6887 43.064 31.6981C43.0852 31.7075 44.3542 31.5046 44.3542 31.5046Z" fill="#6B7B3E"/>
<path d="M44.3528 31.5046C43.5467 31.3557 42.9453 31.0436 42.9453 31.0436L42.4909 32.4375L44.3541 31.5048L44.3528 31.5046Z" fill="#4B5B19"/>
<path d="M43.9268 30.32C43.9268 30.32 43.1765 31.0208 43.0393 31.27L42.9027 31.52L41.9487 30.9739C41.9487 30.9739 42.6022 30.3128 42.6221 30.3254C42.6415 30.3372 43.9268 30.32 43.9268 30.32Z" fill="#6B7B3E"/>
<path d="M43.9276 30.3199C43.1508 30.0556 42.6009 29.6606 42.6009 29.6606L41.9495 30.9739L43.9276 30.3199Z" fill="#4B5B19"/>
<path d="M43.3685 28.5945C43.3685 28.5945 42.7994 29.4494 42.725 29.724L42.6493 29.9984L41.5953 29.6876C41.5953 29.6876 42.0785 28.8935 42.1002 28.9003C42.1225 28.9079 43.3685 28.5945 43.3685 28.5945Z" fill="#6B7B3E"/>
<path d="M43.3685 28.5944C42.5524 28.516 41.9257 28.2586 41.9257 28.2586L41.5953 29.6875L43.3685 28.5944Z" fill="#4B5B19"/>
<path d="M42.6251 41.6697C42.6251 41.6697 41.6114 41.5065 41.3305 41.5513L41.0495 41.596L40.8956 40.5073C40.8956 40.5073 41.8191 40.6182 41.8209 40.6409C41.8232 40.6643 42.6254 41.6684 42.6254 41.6684L42.6251 41.6697Z" fill="#6B7B3E"/>
<path d="M42.6244 41.6699C42.3568 40.895 42.3318 40.2175 42.3318 40.2175L40.8945 40.5088L42.6244 41.6699Z" fill="#4B5B19"/>
<path d="M42.5924 28.8653C42.5924 28.8653 41.796 29.5134 41.6423 29.7534L41.4886 29.9934L40.5739 29.3831C40.5739 29.3831 41.2714 28.7682 41.2905 28.7813C41.3097 28.7944 42.5924 28.8653 42.5924 28.8653Z" fill="#6B7B3E"/>
<path d="M42.5913 28.8655C41.8346 28.5489 41.3128 28.1166 41.3128 28.1166L40.5736 29.3828L42.5913 28.8655Z" fill="#4B5B19"/>
<path d="M42.1523 27.1061C42.1523 27.1061 41.5267 27.9198 41.4329 28.1894L41.3387 28.4582L40.3077 28.0761C40.3077 28.0761 40.8439 27.3164 40.8659 27.3253C40.8873 27.3334 42.1515 27.1066 42.1515 27.1066L42.1523 27.1061Z" fill="#6B7B3E"/>
<path d="M42.1521 27.1063C41.343 26.9731 40.7352 26.6733 40.7352 26.6733L40.3083 28.0758L42.1521 27.1063Z" fill="#4B5B19"/>
<path d="M41.8949 41.6421C41.8949 41.6421 40.8678 41.6528 40.5988 41.7452L40.3298 41.8375L39.9941 40.7907C39.9941 40.7907 40.9226 40.7437 40.9293 40.7652C40.9353 40.7873 41.8957 41.6415 41.8957 41.6415L41.8949 41.6421Z" fill="#6B7B3E"/>
<path d="M41.8955 41.6417C41.5003 40.923 41.3611 40.2597 41.3611 40.2597L39.9941 40.7896L41.8957 41.6404L41.8955 41.6417Z" fill="#4B5B19"/>
<path d="M42.5552 39.862C42.5552 39.862 41.5589 40.1098 41.3178 40.2615L41.0767 40.4132L40.5087 39.4725C40.5087 39.4725 41.4012 39.2124 41.4123 39.2321C41.4234 39.2518 42.5552 39.862 42.5552 39.862Z" fill="#6B7B3E"/>
<path d="M42.5547 39.862C42.004 39.2538 41.7159 38.6407 41.7159 38.6407L40.5081 39.4725L42.5547 39.862Z" fill="#4B5B19"/>
<path d="M43.0422 38.0008C43.0422 38.0008 42.1403 38.4924 41.9462 38.6996L41.7512 38.9074L40.9629 38.1406C40.9629 38.1406 41.7607 37.6631 41.7765 37.6796C41.7923 37.6961 43.0417 38 43.0417 38L43.0422 38.0008Z" fill="#6B7B3E"/>
<path d="M43.0414 38.0006C42.3558 37.5515 41.9209 37.0315 41.9209 37.0315L40.9626 38.1412L43.0414 38.0006Z" fill="#4B5B19"/>
<path d="M43.3001 36.6892C43.3001 36.6892 42.32 36.9942 42.0879 37.1591L41.8563 37.3248L41.2344 36.4185C41.2344 36.4185 42.1102 36.1072 42.1234 36.1266C42.1366 36.146 43.3001 36.6892 43.3001 36.6892Z" fill="#6B7B3E"/>
<path d="M43.2992 36.6891C42.7152 36.1138 42.3914 35.5183 42.3914 35.5183L41.2335 36.4184L43.2992 36.6891Z" fill="#4B5B19"/>
<path d="M43.3399 35.0101C43.3399 35.0101 42.4563 35.5336 42.269 35.7476L42.0822 35.9623L41.2676 35.2236C41.2676 35.2236 42.0484 34.7179 42.065 34.7339C42.0816 34.7499 43.3407 35.0096 43.3407 35.0096L43.3399 35.0101Z" fill="#6B7B3E"/>
<path d="M43.3403 35.0099C42.6393 34.5849 42.1866 34.0805 42.1866 34.0805L41.268 35.2234L43.3403 35.0099Z" fill="#4B5B19"/>
<path d="M43.3866 33.2769C43.3866 33.2769 42.6635 34.0059 42.5373 34.2613L42.4106 34.5158L41.4359 34.0078C41.4359 34.0078 42.0631 33.3214 42.0832 33.3327C42.1034 33.344 43.3866 33.2769 43.3866 33.2769Z" fill="#6B7B3E"/>
<path d="M43.3872 33.2769C42.6013 33.0426 42.0358 32.6696 42.0358 32.6696L41.436 34.0069L43.3872 33.2769Z" fill="#4B5B19"/>
<path d="M43.0874 32.0539C43.0874 32.0539 42.2665 32.6711 42.1045 32.9054L41.9419 33.1389L41.051 32.4953C41.051 32.4953 41.7711 31.907 41.7895 31.9207C41.8079 31.9343 43.0874 32.0539 43.0874 32.0539Z" fill="#6B7B3E"/>
<path d="M43.0874 32.0538C42.3434 31.7092 41.8381 31.2577 41.8381 31.2577L41.0509 32.4952L43.0866 32.0543L43.0874 32.0538Z" fill="#4B5B19"/>
<path d="M42.7147 30.2784C42.7147 30.2784 42.0592 31.0682 41.9547 31.3337L41.8511 31.5987L40.8356 31.1776C40.8356 31.1776 41.4009 30.439 41.4214 30.4489C41.4426 30.4584 42.7153 30.2792 42.7153 30.2792L42.7147 30.2784Z" fill="#6B7B3E"/>
<path d="M42.7153 30.2782C41.9114 30.1143 41.3159 29.7924 41.3159 29.7924L40.8362 31.1775L42.7153 30.2782Z" fill="#4B5B19"/>
<path d="M40.5919 43.2018C40.5919 43.2018 39.6011 42.9321 39.317 42.9472L39.0328 42.9622L38.995 41.8638C38.995 41.8638 39.9016 42.0715 39.9013 42.0945C39.901 42.1174 40.5914 43.201 40.5914 43.201L40.5919 43.2018Z" fill="#6B7B3E"/>
<path d="M40.591 43.2018C40.4072 42.4029 40.4536 41.7267 40.4536 41.7267L38.9941 41.8638L40.591 43.2018Z" fill="#4B5B19"/>
<path d="M40.6218 26.5547C40.6218 26.5547 39.9044 27.2889 39.7788 27.545L39.6539 27.8006L38.6759 27.2993C38.6759 27.2993 39.2986 26.6081 39.3188 26.6193C39.3389 26.6306 40.6212 26.554 40.6212 26.554L40.6218 26.5547Z" fill="#6B7B3E"/>
<path d="M40.6215 26.5548C39.8339 26.3263 39.2655 25.9575 39.2655 25.9575L38.6757 27.2994L40.6215 26.5548Z" fill="#4B5B19"/>
<path d="M39.9838 24.8568C39.9838 24.8568 39.4558 25.7371 39.3929 26.0152L39.3307 26.2928L38.2634 26.0309C38.2634 26.0309 38.7102 25.215 38.7319 25.2218C38.7544 25.2281 39.9843 24.8576 39.9843 24.8576L39.9838 24.8568Z" fill="#6B7B3E"/>
<path d="M39.9845 24.8569C39.1659 24.8166 38.5275 24.5887 38.5275 24.5887L38.2629 26.0308L39.985 24.8577L39.9845 24.8569Z" fill="#4B5B19"/>
<path d="M41.3905 39.3281C41.3905 39.3281 40.3716 39.456 40.1144 39.579L39.8579 39.7014L39.4041 38.6998C39.4041 38.6998 40.3216 38.5466 40.3304 38.5679C40.3393 38.5892 41.3905 39.3281 41.3905 39.3281Z" fill="#6B7B3E"/>
<path d="M41.3912 39.3277C40.9163 38.6589 40.7022 38.0158 40.7022 38.0158L39.4043 38.6987L41.3907 39.327L41.3912 39.3277Z" fill="#4B5B19"/>
<path d="M41.8415 37.4844C41.8415 37.4844 40.8794 37.8442 40.6576 38.0226L40.4358 38.2009L39.7637 37.3311C39.7637 37.3311 40.6205 36.9702 40.6345 36.9891C40.6477 37.0085 41.8415 37.4844 41.8415 37.4844Z" fill="#6B7B3E"/>
<path d="M41.8422 37.4843C41.226 36.9435 40.8687 36.3673 40.8687 36.3673L39.7644 37.3309L41.8422 37.4843Z" fill="#4B5B19"/>
<path d="M42.1128 35.5788C42.1128 35.5788 41.2732 36.1701 41.104 36.399L40.9348 36.6279L40.0648 35.9565C40.0648 35.9565 40.8029 35.3912 40.8205 35.4054C40.8386 35.4203 42.1134 35.5795 42.1134 35.5795L42.1128 35.5788Z" fill="#6B7B3E"/>
<path d="M42.1128 35.5789C41.38 35.2108 40.8891 34.7438 40.8891 34.7438L40.0642 35.9558L42.1128 35.5789Z" fill="#4B5B19"/>
<path d="M42.2184 34.2473C42.2184 34.2473 41.279 34.6621 41.0677 34.8526L40.8565 35.0431L40.1348 34.2139C40.1348 34.2139 40.9697 33.8042 40.9845 33.8226C40.9988 33.8402 42.2184 34.2473 42.2184 34.2473Z" fill="#6B7B3E"/>
<path d="M42.2188 34.2471C41.5727 33.7426 41.1829 33.1886 41.1829 33.1886L40.1357 34.2145L42.2188 34.2471Z" fill="#4B5B19"/>
<path d="M42.0681 32.574C42.0681 32.574 41.2498 33.195 41.0885 33.4288L40.9269 33.6639L40.0335 33.0232C40.0335 33.0232 40.7515 32.4318 40.7691 32.446C40.7867 32.4601 42.0673 32.5745 42.0673 32.5745L42.0681 32.574Z" fill="#6B7B3E"/>
<path d="M42.0672 32.5741C41.3219 32.2326 40.8142 31.7827 40.8142 31.7827L40.0326 33.0233L42.0672 32.5741Z" fill="#4B5B19"/>
<path d="M41.9152 30.8466C41.9152 30.8466 41.2806 31.6539 41.1832 31.9215L41.0858 32.189L40.0597 31.7956C40.0597 31.7956 40.6048 31.0423 40.626 31.0517C40.6472 31.0612 41.9144 30.8471 41.9144 30.8471L41.9152 30.8466Z" fill="#6B7B3E"/>
<path d="M41.9153 30.8464C41.108 30.7041 40.5035 30.3974 40.5035 30.3974L40.0606 31.7949L41.9153 30.8464Z" fill="#4B5B19"/>
<path d="M41.4793 29.6656C41.4793 29.6656 40.7346 30.3729 40.5997 30.6239L40.4649 30.8749L39.5061 30.3367C39.5061 30.3367 40.1545 29.6699 40.1739 29.6817C40.1933 29.6935 41.4785 29.6661 41.4785 29.6661L41.4793 29.6656Z" fill="#6B7B3E"/>
<path d="M41.4791 29.6656C40.701 29.4078 40.147 29.0168 40.147 29.0168L39.5067 30.3362L41.4791 29.6656Z" fill="#4B5B19"/>
<path d="M40.9065 27.9448C40.9065 27.9448 40.3452 28.8046 40.2721 29.0795L40.199 29.3543L39.142 29.0524C39.142 29.0524 39.6187 28.2537 39.6409 28.2613C39.6626 28.2681 40.9065 27.9448 40.9065 27.9448Z" fill="#6B7B3E"/>
<path d="M40.9056 27.9448C40.0887 27.8737 39.4598 27.6212 39.4598 27.6212L39.141 29.0524L40.9056 27.9448Z" fill="#4B5B19"/>
<path d="M40.2744 41.0259C40.2744 41.0259 39.2597 40.8714 38.9783 40.9187L38.6981 40.9663L38.5351 39.8793C38.5351 39.8793 39.4593 39.9829 39.4619 40.005C39.465 40.0279 40.2744 41.0259 40.2744 41.0259Z" fill="#6B7B3E"/>
<path d="M40.2753 41.026C40.0012 40.2533 39.97 39.5766 39.97 39.5766L38.5352 39.8799L40.2745 41.0265L40.2753 41.026Z" fill="#4B5B19"/>
<path d="M39.7487 25.9991C39.7487 25.9991 39.0314 26.7332 38.9057 26.9893L38.7809 27.2449L37.8029 26.7437C37.8029 26.7437 38.4255 26.0524 38.4457 26.0637C38.4659 26.0749 39.7482 25.9983 39.7482 25.9983L39.7487 25.9991Z" fill="#6B7B3E"/>
<path d="M39.7485 25.9991C38.9608 25.7706 38.3925 25.4018 38.3925 25.4018L37.8026 26.7437L39.7485 25.9991Z" fill="#4B5B19"/>
<path d="M39.1107 24.3016C39.1107 24.3016 38.5827 25.1819 38.5198 25.46L38.4577 25.7376L37.3904 25.4757C37.3904 25.4757 37.8372 24.6598 37.8589 24.6667C37.8814 24.6729 39.1112 24.3024 39.1112 24.3024L39.1107 24.3016Z" fill="#6B7B3E"/>
<path d="M39.1115 24.3018C38.2928 24.2615 37.6545 24.0336 37.6545 24.0336L37.3898 25.4756L39.112 24.3025L39.1115 24.3018Z" fill="#4B5B19"/>
<path d="M40.5175 38.7714C40.5175 38.7714 39.4986 38.8994 39.2413 39.0223L38.9848 39.1448L38.5311 38.1432C38.5311 38.1432 39.4486 37.99 39.4574 38.0112C39.4662 38.0325 40.5175 38.7714 40.5175 38.7714Z" fill="#6B7B3E"/>
<path d="M40.5182 38.7711C40.0432 38.1023 39.8291 37.4592 39.8291 37.4592L38.5312 38.1421L40.5176 38.7703L40.5182 38.7711Z" fill="#4B5B19"/>
<path d="M40.9684 36.9282C40.9684 36.9282 40.0063 37.2881 39.7845 37.4664L39.5627 37.6448L38.8906 36.7749C38.8906 36.7749 39.7475 36.4141 39.7614 36.4329C39.7747 36.4524 40.9684 36.9282 40.9684 36.9282Z" fill="#6B7B3E"/>
<path d="M40.9692 36.9281C40.353 36.3873 39.9957 35.8111 39.9957 35.8111L38.8913 36.7748L40.9692 36.9281Z" fill="#4B5B19"/>
<path d="M41.2398 35.0226C41.2398 35.0226 40.4001 35.6139 40.2309 35.8428L40.0618 36.0717L39.1918 35.4003C39.1918 35.4003 39.9298 34.835 39.9474 34.8492C39.9655 34.8641 41.2403 35.0234 41.2403 35.0234L41.2398 35.0226Z" fill="#6B7B3E"/>
<path d="M41.2397 35.0228C40.507 34.6546 40.0161 34.1876 40.0161 34.1876L39.1912 35.3997L41.2397 35.0228Z" fill="#4B5B19"/>
<path d="M41.3454 33.6916C41.3454 33.6916 40.406 34.1064 40.1947 34.2969L39.9835 34.4874L39.2617 33.6582C39.2617 33.6582 40.0967 33.2486 40.1115 33.2669C40.1257 33.2845 41.3454 33.6916 41.3454 33.6916Z" fill="#6B7B3E"/>
<path d="M41.3458 33.6915C40.6997 33.1869 40.3098 32.6329 40.3098 32.6329L39.2626 33.6588L41.3458 33.6915Z" fill="#4B5B19"/>
<path d="M41.195 32.0183C41.195 32.0183 40.3767 32.6394 40.2154 32.8731L40.0539 33.1082L39.1605 32.4675C39.1605 32.4675 39.8785 31.8762 39.8961 31.8903C39.9144 31.9039 41.1942 32.0189 41.1942 32.0189L41.195 32.0183Z" fill="#6B7B3E"/>
<path d="M41.1941 32.0184C40.4489 31.6769 39.9412 31.227 39.9412 31.227L39.1596 32.4676L41.1941 32.0184Z" fill="#4B5B19"/>
<path d="M40.3863 36.0104C40.3863 36.0104 39.5466 36.6017 39.3774 36.8306L39.2083 37.0595L38.3383 36.3881C38.3383 36.3881 39.0763 35.8228 39.0939 35.837C39.112 35.8519 40.3868 36.0112 40.3868 36.0112L40.3863 36.0104Z" fill="#6B7B3E"/>
<path d="M40.3862 36.0106C39.6535 35.6424 39.1626 35.1754 39.1626 35.1754L38.3377 36.3875L40.3862 36.0106Z" fill="#4B5B19"/>
<path d="M39.2593 37.2018C39.2593 37.2018 38.4196 37.7931 38.2505 38.022L38.0813 38.2509L37.2113 37.5795C37.2113 37.5795 37.9493 37.0142 37.9669 37.0284C37.9851 37.0433 39.2598 37.2026 39.2598 37.2026L39.2593 37.2018Z" fill="#6B7B3E"/>
<path d="M39.2593 37.202C38.5265 36.8338 38.0356 36.3668 38.0356 36.3668L37.2107 37.5789L39.2593 37.202Z" fill="#4B5B19"/>
<path d="M40.4899 34.6789C40.4899 34.6789 39.5505 35.0937 39.3393 35.2843L39.128 35.4748L38.4062 34.6455C38.4062 34.6455 39.2412 34.2359 39.256 34.2542C39.2702 34.2718 40.4899 34.6789 40.4899 34.6789Z" fill="#6B7B3E"/>
<path d="M40.4903 34.6788C39.8442 34.1742 39.4544 33.6202 39.4544 33.6202L38.4072 34.6461L40.4903 34.6788Z" fill="#4B5B19"/>
<path d="M40.3415 33.0066C40.3415 33.0066 39.5232 33.6277 39.3619 33.8614L39.2004 34.0965L38.307 33.4558C38.307 33.4558 39.0249 32.8644 39.0425 32.8786C39.0601 32.8928 40.3407 33.0071 40.3407 33.0071L40.3415 33.0066Z" fill="#6B7B3E"/>
<path d="M40.3406 33.0067C39.5953 32.6652 39.0877 32.2153 39.0877 32.2153L38.3055 33.4551L40.3401 33.0059L40.3406 33.0067Z" fill="#4B5B19"/>
<path d="M41.0407 30.2912C41.0407 30.2912 40.4062 31.0985 40.3088 31.3661L40.2114 31.6336L39.1847 31.2395C39.1847 31.2395 39.7298 30.4862 39.751 30.4956C39.7722 30.505 41.0394 30.291 41.0394 30.291L41.0407 30.2912Z" fill="#6B7B3E"/>
<path d="M41.0403 30.2912C40.233 30.1489 39.6285 29.8422 39.6285 29.8422L39.1856 31.2397L41.0403 30.2912Z" fill="#4B5B19"/>
<path d="M40.6054 29.1105C40.6054 29.1105 39.8607 29.8178 39.7267 30.0682L39.5919 30.3192L38.6331 29.781C38.6331 29.781 39.2815 29.1143 39.3009 29.1261C39.3203 29.1379 40.6054 29.1105 40.6054 29.1105Z" fill="#6B7B3E"/>
<path d="M40.606 29.1104C39.8279 28.8527 39.274 28.4616 39.274 28.4616L38.6336 29.781L40.606 29.1104Z" fill="#4B5B19"/>
<path d="M40.0335 27.3897C40.0335 27.3897 39.4721 28.2495 39.3991 28.5243L39.326 28.7992L38.2689 28.4973C38.2689 28.4973 38.7456 27.6985 38.7679 27.7061C38.7896 27.713 40.0335 27.3897 40.0335 27.3897Z" fill="#6B7B3E"/>
<path d="M40.0325 27.3896C39.2157 27.3186 38.5867 27.0661 38.5867 27.0661L38.268 28.4972L40.0325 27.3896Z" fill="#4B5B19"/>
<path d="M39.4013 40.4712C39.4013 40.4712 38.3867 40.3167 38.1052 40.364L37.825 40.4116L37.662 39.3246C37.662 39.3246 38.5863 39.4282 38.5888 39.4503C38.5919 39.4732 39.4013 40.4712 39.4013 40.4712Z" fill="#6B7B3E"/>
<path d="M39.4014 40.4713C39.1274 39.6986 39.097 39.0214 39.097 39.0214L37.6621 39.3247L39.4014 40.4713Z" fill="#4B5B19"/>
<path d="M31.053 47.9938C31.053 47.9938 30.5088 47.1232 30.2904 46.9411L30.0713 46.7596L30.7903 45.9277C30.7903 45.9277 31.3139 46.6964 31.2987 46.7124C31.2827 46.729 31.0543 47.994 31.0543 47.994L31.053 47.9938Z" fill="#6B7B3E"/>
<path d="M31.0532 47.9939C31.4612 47.2829 31.9542 46.8186 31.9542 46.8186L30.7897 45.9283L31.0529 47.9952L31.0532 47.9939Z" fill="#4B5B19"/>
<path d="M32.8506 48.0432C32.8506 48.0432 32.1201 47.3212 31.8647 47.195L31.6094 47.0688L32.1169 46.0934C32.1169 46.0934 32.8041 46.72 32.7928 46.7402C32.7816 46.7603 32.8506 48.0432 32.8506 48.0432Z" fill="#6B7B3E"/>
<path d="M32.8507 48.0434C33.0837 47.2572 33.4561 46.6909 33.4561 46.6909L32.1178 46.093L32.8515 48.0428L32.8507 48.0434Z" fill="#4B5B19"/>
<path d="M34.4735 47.8123C34.4735 47.8123 33.5845 47.2982 33.3053 47.2405L33.027 47.1823L33.2709 46.1102C33.2709 46.1102 34.0942 46.5429 34.0879 46.5654C34.0816 46.5878 34.473 47.8115 34.473 47.8115L34.4735 47.8123Z" fill="#6B7B3E"/>
<path d="M34.4743 47.8121C34.5006 46.9928 34.7182 46.3512 34.7182 46.3512L33.2715 46.1113L34.4736 47.8126L34.4743 47.8121Z" fill="#4B5B19"/>
<path d="M35.7484 47.7047C35.7484 47.7047 34.8533 47.2016 34.5736 47.1465L34.294 47.0914L34.5256 46.0163C34.5256 46.0163 35.3535 46.4391 35.3485 46.4618C35.343 46.4837 35.7479 47.7039 35.7479 47.7039L35.7484 47.7047Z" fill="#6B7B3E"/>
<path d="M35.7477 47.7046C35.7645 46.885 35.9746 46.2405 35.9746 46.2405L34.5254 46.0171L35.7477 47.7046Z" fill="#4B5B19"/>
<path d="M38.3207 46.3355C38.3207 46.3355 37.4141 45.8539 37.1332 45.8053L36.8529 45.7576L37.0589 44.6783C37.0589 44.6783 37.8965 45.0819 37.8915 45.1046C37.8866 45.1273 38.3205 46.3368 38.3205 46.3368L38.3207 46.3355Z" fill="#6B7B3E"/>
<path d="M38.3221 46.3353C38.3194 45.5152 38.5149 44.866 38.5149 44.866L37.0605 44.6768L38.3221 46.3353Z" fill="#4B5B19"/>
<path d="M37.2836 47.1572C37.2836 47.1572 36.377 46.6756 36.0961 46.6271L35.8158 46.5793L36.0226 45.4995C36.0226 45.4995 36.8602 45.9031 36.8552 45.9259C36.8502 45.9486 37.2842 47.158 37.2842 47.158L37.2836 47.1572Z" fill="#6B7B3E"/>
<path d="M37.285 47.157C37.2823 46.337 37.4778 45.6878 37.4778 45.6878L36.0234 45.4985L37.285 47.157Z" fill="#4B5B19"/>
<path d="M39.715 45.2108C39.715 45.2108 38.7159 44.9741 38.4322 44.998L38.1489 45.0227L38.0757 43.9256C38.0757 43.9256 38.9884 44.1041 38.9894 44.1273C38.9905 44.1505 39.7155 45.2116 39.7155 45.2116L39.715 45.2108Z" fill="#6B7B3E"/>
<path d="M39.7155 45.211C39.5062 44.4181 39.5304 43.7411 39.5304 43.7411L38.0762 43.9258L39.7155 45.211Z" fill="#4B5B19"/>
<path d="M40.7353 44.0513C40.7353 44.0513 39.7207 43.8967 39.4392 43.9441L39.159 43.9917L38.996 42.9047C38.996 42.9047 39.9203 43.0083 39.9228 43.0304C39.9259 43.0533 40.7353 44.0513 40.7353 44.0513Z" fill="#6B7B3E"/>
<path d="M40.7354 44.0514C40.4614 43.2787 40.4309 42.6015 40.4309 42.6015L38.9961 42.9048L40.7354 44.0514Z" fill="#4B5B19"/>
<path d="M41.7041 42.9671C41.7041 42.9671 40.6877 42.8183 40.4078 42.868L40.1274 42.9169L39.9581 41.8307C39.9581 41.8307 40.8829 41.9283 40.886 41.9512C40.889 41.9741 41.7049 42.9666 41.7049 42.9666L41.7041 42.9671Z" fill="#6B7B3E"/>
<path d="M41.705 42.967C41.4266 42.1961 41.3914 41.5187 41.3914 41.5187L39.959 41.8306L41.705 42.967Z" fill="#4B5B19"/>
<path d="M29.1532 47.5259C29.1532 47.5259 28.9209 46.5257 28.7723 46.2825L28.6237 46.0393L29.5727 45.485C29.5727 45.485 29.8198 46.3818 29.7988 46.3927C29.7786 46.403 29.1519 47.5256 29.1519 47.5256L29.1532 47.5259Z" fill="#6B7B3E"/>
<path d="M29.1526 47.526C29.7689 46.9857 30.386 46.7051 30.386 46.7051L29.5728 45.4846L29.1528 47.5247L29.1526 47.526Z" fill="#4B5B19"/>
<path d="M32.8574 16.9102L33.8809 17.1428L33.8929 16.6697L32.8574 16.9102Z" fill="#261C02"/>
<path d="M32.4673 14.6473C32.4673 14.6473 32.9442 14.8817 33.429 14.8709C33.9143 14.8608 33.8738 14.6645 33.8738 14.6645L33.8135 14.3339C33.8135 14.3339 33.6104 14.5381 33.3088 14.5993C33.0063 14.6609 32.4668 14.6465 32.4668 14.6465L32.4673 14.6473Z" fill="#261C02"/>
<path d="M32.8384 16.3362C32.8384 16.3362 33.3153 16.5707 33.8001 16.5598C34.2855 16.5498 34.2449 16.3535 34.2449 16.3535L34.1846 16.0229C34.1846 16.0229 33.9815 16.2271 33.6799 16.2882C33.3774 16.3499 32.8379 16.3354 32.8379 16.3354L32.8384 16.3362Z" fill="#261C02"/>
<path d="M37.0747 46.041C37.0747 46.041 36.168 45.5594 35.8871 45.5109L35.6068 45.4631L35.8128 44.3838C35.8128 44.3838 36.6504 44.7875 36.6455 44.8102C36.6405 44.8329 37.0744 46.0423 37.0744 46.0423L37.0747 46.041Z" fill="#6B7B3E"/>
<path d="M37.076 46.0408C37.0733 45.2208 37.2688 44.5716 37.2688 44.5716L35.8145 44.3823L37.076 46.0408Z" fill="#4B5B19"/>
<path d="M35.938 46.5654C35.938 46.5654 35.0313 46.0838 34.7504 46.0353L34.4701 45.9875L34.6761 44.9083C34.6761 44.9083 35.5137 45.3119 35.5087 45.3346C35.5038 45.3573 35.9377 46.5667 35.9377 46.5667L35.938 46.5654Z" fill="#6B7B3E"/>
<path d="M35.9393 46.5652C35.9366 45.7452 36.1321 45.096 36.1321 45.096L34.6777 44.9067L35.9388 46.5644L35.9393 46.5652Z" fill="#4B5B19"/>
<path d="M34.6196 46.8233C34.6196 46.8233 33.7129 46.3416 33.432 46.2931L33.1517 46.2454L33.3577 45.1661C33.3577 45.1661 34.1954 45.5697 34.1904 45.5924C34.1854 45.6151 34.6193 46.8246 34.6193 46.8246L34.6196 46.8233Z" fill="#6B7B3E"/>
<path d="M34.621 46.823C34.6182 46.003 34.8137 45.3538 34.8137 45.3538L33.3594 45.1646L34.621 46.823Z" fill="#4B5B19"/>
<path d="M33.3325 46.981C33.3325 46.981 32.4258 46.4994 32.1449 46.4508L31.8646 46.4031L32.0706 45.3238C32.0706 45.3238 32.9083 45.7274 32.9033 45.7501C32.8983 45.7728 33.3322 46.9823 33.3322 46.9823L33.3325 46.981Z" fill="#6B7B3E"/>
<path d="M33.3338 46.9808C33.3311 46.1607 33.5266 45.5115 33.5266 45.5115L32.0723 45.3223L33.3338 46.9808Z" fill="#4B5B19"/>
<path d="M31.7075 46.9833C31.7075 46.9833 31.1802 46.1023 30.9647 45.9161L30.7491 45.7298L31.4836 44.9123C31.4836 44.9123 31.9925 45.6911 31.9765 45.7077C31.9605 45.7242 31.7068 46.9838 31.7068 46.9838L31.7075 46.9833Z" fill="#6B7B3E"/>
<path d="M31.7084 46.9831C32.1297 46.28 32.6325 45.825 32.6325 45.825L31.4852 44.9117L31.7084 46.9831Z" fill="#4B5B19"/>
<path d="M39.2459 38.9866C39.2459 38.9866 38.2356 39.169 37.9853 39.3054L37.7357 39.4413L37.229 38.4656C37.229 38.4656 38.1367 38.2645 38.147 38.2847C38.1566 38.3054 39.2464 38.9874 39.2464 38.9874L39.2459 38.9866Z" fill="#6B7B3E"/>
<path d="M39.2454 38.9864C38.7358 38.3435 38.4874 37.7135 38.4874 37.7135L37.2285 38.4653L39.2454 38.9864Z" fill="#4B5B19"/>
<path d="M39.0928 35.6198C39.0928 35.6198 38.18 36.0903 37.9811 36.294L37.7817 36.4969L37.0117 35.7119C37.0117 35.7119 37.8209 35.2528 37.8359 35.2698C37.8517 35.2864 39.0923 35.619 39.0923 35.619L39.0928 35.6198Z" fill="#6B7B3E"/>
<path d="M39.0924 35.62C38.4165 35.1551 37.9943 34.6254 37.9943 34.6254L37.0105 35.7127L39.0924 35.62Z" fill="#4B5B19"/>
<path d="M39.1475 32.6442C39.1475 32.6442 38.2347 33.1148 38.0358 33.3184L37.8364 33.5213L37.0664 32.7363C37.0664 32.7363 37.8756 32.2772 37.8906 32.2943C37.9064 32.3108 39.1477 32.6429 39.1477 32.6429L39.1475 32.6442Z" fill="#6B7B3E"/>
<path d="M39.1471 32.6439C38.4712 32.179 38.049 31.6493 38.049 31.6493L37.0652 32.7366L39.1471 32.6439Z" fill="#4B5B19"/>
<path d="M39.1436 30.7042C39.1436 30.7042 38.2308 31.1748 38.0319 31.3785L37.8325 31.5814L37.0625 30.7964C37.0625 30.7964 37.8717 30.3372 37.8867 30.3543C37.9025 30.3708 39.1431 30.7034 39.1431 30.7034L39.1436 30.7042Z" fill="#6B7B3E"/>
<path d="M39.1432 30.704C38.4673 30.2391 38.0451 29.7094 38.0451 29.7094L37.0613 30.7967L39.1432 30.704Z" fill="#4B5B19"/>
<path d="M39.5225 31.8668C39.5225 31.8668 38.6097 32.3374 38.4108 32.5411L38.2114 32.744L37.4414 31.959C37.4414 31.959 38.2506 31.4999 38.2656 31.5169C38.2806 31.5339 39.522 31.8661 39.522 31.8661L39.5225 31.8668Z" fill="#6B7B3E"/>
<path d="M39.5221 31.8666C38.8462 31.4017 38.424 30.872 38.424 30.872L37.4402 31.9593L39.5221 31.8666Z" fill="#4B5B19"/>
<path d="M39.1846 29.2101C39.1846 29.2101 38.2718 29.6807 38.0729 29.8843L37.8735 30.0872L37.1035 29.3022C37.1035 29.3022 37.9127 28.8431 37.9277 28.8602C37.9435 28.8767 39.1841 29.2093 39.1841 29.2093L39.1846 29.2101Z" fill="#6B7B3E"/>
<path d="M39.1842 29.2099C38.5083 28.745 38.0861 28.2152 38.0861 28.2152L37.1023 29.3025L39.1842 29.2099Z" fill="#4B5B19"/>
<path d="M39.0909 27.7096C39.0909 27.7096 38.1781 28.1802 37.9792 28.3839L37.7798 28.5867L37.0098 27.8018C37.0098 27.8018 37.819 27.3426 37.834 27.3597C37.849 27.3767 39.0903 27.7088 39.0903 27.7088L39.0909 27.7096Z" fill="#6B7B3E"/>
<path d="M39.0904 27.7094C38.4146 27.2445 37.9923 26.7147 37.9923 26.7147L37.0086 27.8021L39.0904 27.7094Z" fill="#4B5B19"/>
<path d="M37.9217 40.2752C37.9217 40.2752 36.9114 40.4575 36.661 40.594L36.4115 40.7299L35.9048 39.7541C35.9048 39.7541 36.8125 39.553 36.8228 39.5732C36.8324 39.594 37.9222 40.276 37.9222 40.276L37.9217 40.2752Z" fill="#6B7B3E"/>
<path d="M37.9211 40.275C37.4121 39.6328 37.1632 39.0021 37.1632 39.0021L35.9043 39.7539L37.9211 40.275Z" fill="#4B5B19"/>
<path d="M35.6446 43.7481C35.6446 43.7481 34.6849 43.3822 34.4007 43.3689L34.1166 43.3555L34.1879 42.2588C34.1879 42.2588 35.0696 42.5552 35.0672 42.5784C35.0648 42.6016 35.6453 43.7476 35.6453 43.7476L35.6446 43.7481Z" fill="#6B7B3E"/>
<path d="M35.6441 43.748C35.5401 42.9345 35.6533 42.2663 35.6533 42.2663L34.1875 42.2588L35.6449 43.7475L35.6441 43.748Z" fill="#4B5B19"/>
<path d="M33.6055 45.7232C33.6055 45.7232 32.6458 45.3573 32.3616 45.344L32.0775 45.3306L32.1489 44.2339C32.1489 44.2339 33.0305 44.5303 33.0281 44.5535C33.0258 44.5767 33.6063 45.7227 33.6063 45.7227L33.6055 45.7232Z" fill="#6B7B3E"/>
<path d="M33.6051 45.7231C33.5011 44.9096 33.6143 44.2414 33.6143 44.2414L32.1484 44.2339L33.6051 45.7231Z" fill="#4B5B19"/>
<path d="M37.2244 41.6361C37.2244 41.6361 36.2141 41.8184 35.9638 41.9548L35.7142 42.0907L35.2075 41.115C35.2075 41.115 36.1152 40.9139 36.1256 40.9341C36.1352 40.9548 37.2249 41.6368 37.2249 41.6368L37.2244 41.6361Z" fill="#6B7B3E"/>
<path d="M37.2239 41.6358C36.7148 40.9937 36.4659 40.3629 36.4659 40.3629L35.207 41.1147L37.2239 41.6358Z" fill="#4B5B19"/>
<path d="M36.5799 42.6985C36.5799 42.6985 35.5696 42.8809 35.3192 43.0173L35.0697 43.1532L34.563 42.1775C34.563 42.1775 35.4714 41.9758 35.481 41.9966C35.4906 42.0173 36.5804 42.6993 36.5804 42.6993L36.5799 42.6985Z" fill="#6B7B3E"/>
<path d="M36.5799 42.6981C36.0708 42.0559 35.8219 41.4252 35.8219 41.4252L34.5625 42.1763L36.5793 42.6974L36.5799 42.6981Z" fill="#4B5B19"/>
<path d="M38.1176 44.9805C38.1176 44.9805 37.211 44.4989 36.9301 44.4503L36.6498 44.4026L36.8566 43.3228C36.8566 43.3228 37.6942 43.7264 37.6892 43.7491C37.6842 43.7718 38.1182 44.9813 38.1182 44.9813L38.1176 44.9805Z" fill="#6B7B3E"/>
<path d="M38.119 44.9803C38.1163 44.1603 38.3118 43.511 38.3118 43.511L36.8574 43.3218L38.119 44.9803Z" fill="#4B5B19"/>
<path d="M39.3243 44.0467C39.3243 44.0467 38.3207 43.8301 38.0378 43.8602L37.7549 43.8904L37.659 42.7951C37.659 42.7951 38.5752 42.9554 38.5762 42.9785C38.5772 43.0017 39.3243 44.0467 39.3243 44.0467Z" fill="#6B7B3E"/>
<path d="M39.3235 44.0465C39.0978 43.2579 39.1085 42.5811 39.1085 42.5811L37.6582 42.7949L39.3235 44.0465Z" fill="#4B5B19"/>
<path d="M39.4591 42.8426C39.4591 42.8426 38.4555 42.6259 38.1726 42.6561L37.8896 42.6863L37.7937 41.591C37.7937 41.591 38.71 41.7513 38.711 41.7744C38.712 41.7976 39.4583 42.8432 39.4583 42.8432L39.4591 42.8426Z" fill="#6B7B3E"/>
<path d="M39.4583 42.8424C39.2326 42.0538 39.2433 41.377 39.2433 41.377L37.793 41.5908L39.4583 42.8424Z" fill="#4B5B19"/>
<path d="M40.9727 40.4564C40.9727 40.4564 39.9692 40.2397 39.6862 40.2699L39.4033 40.3001L39.3074 39.2048C39.3074 39.2048 40.2236 39.365 40.2246 39.3882C40.2257 39.4114 40.9727 40.4564 40.9727 40.4564Z" fill="#6B7B3E"/>
<path d="M40.972 40.4562C40.7463 39.6676 40.757 38.9908 40.757 38.9908L39.3066 39.2046L40.972 40.4562Z" fill="#4B5B19"/>
<path d="M40.1387 41.9447C40.1387 41.9447 39.1352 41.728 38.8522 41.7582L38.5693 41.7884L38.4734 40.6931C38.4734 40.6931 39.3896 40.8533 39.3907 40.8765C39.3917 40.8997 40.1387 41.9447 40.1387 41.9447Z" fill="#6B7B3E"/>
<path d="M40.138 41.9445C39.9123 41.1559 39.923 40.4791 39.923 40.4791L38.4727 40.6929L40.138 41.9445Z" fill="#4B5B19"/>
<path d="M38.6388 41.6043C38.6388 41.6043 37.6352 41.3877 37.3523 41.4178L37.0693 41.448L36.9734 40.3527C36.9734 40.3527 37.8897 40.513 37.8907 40.5362C37.8917 40.5593 38.6388 41.6043 38.6388 41.6043Z" fill="#6B7B3E"/>
<path d="M38.638 41.6041C38.4123 40.8155 38.423 40.1387 38.423 40.1387L36.9727 40.3525L38.638 41.6041Z" fill="#4B5B19"/>
<path d="M38.1036 42.9476C38.1036 42.9476 37.1 42.7309 36.8171 42.7611L36.5341 42.7913L36.4383 41.696C36.4383 41.696 37.3545 41.8562 37.3555 41.8794C37.3565 41.9026 38.1041 42.9484 38.1041 42.9484L38.1036 42.9476Z" fill="#6B7B3E"/>
<path d="M38.1028 42.9474C37.8771 42.1588 37.8878 41.482 37.8878 41.482L36.4375 41.6958L38.1028 42.9474Z" fill="#4B5B19"/>
<path d="M37.3985 44.0843C37.3985 44.0843 36.395 43.8676 36.112 43.8978L35.8291 43.928L35.7332 42.8327C35.7332 42.8327 36.6494 42.9929 36.6504 43.0161C36.6515 43.0393 37.3985 44.0843 37.3985 44.0843Z" fill="#6B7B3E"/>
<path d="M37.3978 44.0841C37.1721 43.2955 37.1828 42.6187 37.1828 42.6187L35.7324 42.8325L37.3978 44.0841Z" fill="#4B5B19"/>
<path d="M36.2201 45.3454C36.2201 45.3454 35.2894 44.9119 35.0063 44.8785L34.7233 44.8451L34.8724 43.7557C34.8724 43.7557 35.7307 44.1146 35.7265 44.1368C35.7228 44.1598 36.2196 45.3446 36.2196 45.3446L36.2201 45.3454Z" fill="#6B7B3E"/>
<path d="M36.2202 45.3452C36.1753 44.5266 36.3352 43.8687 36.3352 43.8687L34.873 43.7563L36.2194 45.3457L36.2202 45.3452Z" fill="#4B5B19"/>
<path d="M35.2162 45.9215C35.2162 45.9215 34.2855 45.4881 34.0024 45.4547L33.7194 45.4213L33.8685 44.3319C33.8685 44.3319 34.7268 44.6908 34.7226 44.713C34.7189 44.7359 35.2157 45.9208 35.2157 45.9208L35.2162 45.9215Z" fill="#6B7B3E"/>
<path d="M35.2163 45.9214C35.1709 45.102 35.3313 44.4448 35.3313 44.4448L33.8691 44.3325L35.2155 45.9219L35.2163 45.9214Z" fill="#4B5B19"/>
<path d="M27.1364 21.4113C27.1364 21.4113 28.017 21.7628 28.279 21.7787L28.5411 21.7946L28.4594 22.8062C28.4594 22.8062 27.6503 22.5196 27.6522 22.499C27.6549 22.4778 27.1356 21.4118 27.1356 21.4118L27.1364 21.4113Z" fill="#6B7B3E"/>
<path d="M27.1366 21.4115C27.2212 22.1632 27.1072 22.7785 27.1072 22.7785L28.4604 22.8059L27.1373 21.411L27.1366 21.4115Z" fill="#4B5B19"/>
<path d="M24.0117 25.0029C24.0117 25.0029 24.9588 25.0433 25.2119 24.9709L25.4642 24.8991L25.7231 25.8799C25.7231 25.8799 24.8647 25.878 24.8598 25.8575C24.8549 25.837 24.0117 25.0029 24.0117 25.0029Z" fill="#6B7B3E"/>
<path d="M24.0117 25.0031C24.3409 25.6848 24.4367 26.3028 24.4367 26.3028L25.7223 25.8806L24.0117 25.0031Z" fill="#4B5B19"/>
<path d="M24.8223 23.7163C24.8223 23.7163 25.7693 23.7566 26.0224 23.6843L26.2747 23.6124L26.5336 24.5933C26.5336 24.5933 25.6753 24.5914 25.6704 24.5709C25.6655 24.5503 24.8223 23.7163 24.8223 23.7163Z" fill="#6B7B3E"/>
<path d="M24.8223 23.7165C25.1514 24.3982 25.2472 25.0161 25.2472 25.0161L26.5329 24.5939L24.8223 23.7165Z" fill="#4B5B19"/>
<path d="M25.8887 22.4761C25.8887 22.4761 26.8177 22.6651 27.0785 22.6341L27.3393 22.6031L27.4406 23.6129C27.4406 23.6129 26.5936 23.4759 26.5916 23.4546C26.5908 23.4335 25.8892 22.4769 25.8892 22.4769L25.8887 22.4761Z" fill="#6B7B3E"/>
<path d="M25.8896 22.4763C26.1071 23.2011 26.1048 23.8268 26.1048 23.8268L27.441 23.6123L25.8896 22.4763Z" fill="#4B5B19"/>
<path d="M21.7852 30.939C21.7852 30.939 22.6811 30.6288 22.8898 30.4696L23.0984 30.3104L23.6986 31.1281C23.6986 31.1281 22.8989 31.4409 22.8873 31.4238C22.8757 31.4068 21.7852 30.939 21.7852 30.939Z" fill="#6B7B3E"/>
<path d="M21.7852 30.939C22.3409 31.4527 22.6571 31.9921 22.6571 31.9921L23.6986 31.1281L21.7852 30.939Z" fill="#4B5B19"/>
<path d="M22.0547 29.5972C22.0547 29.5972 22.9506 29.287 23.1593 29.1278L23.368 28.9686L23.9682 29.7863C23.9682 29.7863 23.1685 30.0991 23.1568 30.082C23.1452 30.065 22.0547 29.5972 22.0547 29.5972Z" fill="#6B7B3E"/>
<path d="M22.0547 29.5972C22.6104 30.111 22.9267 30.6503 22.9267 30.6503L23.9682 29.7863L22.0547 29.5972Z" fill="#4B5B19"/>
<path d="M22.4988 28.0156C22.4988 28.0156 23.4307 27.84 23.6603 27.7132L23.8899 27.5863L24.3635 28.4835C24.3635 28.4835 23.5271 28.6758 23.5178 28.6571C23.5085 28.6385 22.498 28.0161 22.498 28.0161L22.4988 28.0156Z" fill="#6B7B3E"/>
<path d="M22.4981 28.0154C22.9725 28.605 23.206 29.1848 23.206 29.1848L24.3635 28.4827L22.4981 28.0154Z" fill="#4B5B19"/>
<path d="M23.2012 26.5151C23.2012 26.5151 24.1449 26.427 24.3859 26.322L24.6269 26.2169L25.0152 27.154C25.0152 27.154 24.164 27.2677 24.157 27.2475C24.1492 27.2277 23.2012 26.5151 23.2012 26.5151Z" fill="#6B7B3E"/>
<path d="M23.2017 26.5153C23.6195 27.147 23.7987 27.7455 23.7987 27.7455L25.0157 27.1541L23.2017 26.5153Z" fill="#4B5B19"/>
<path d="M21.6191 32.397C21.6191 32.397 22.515 32.0868 22.7237 31.9276L22.9324 31.7684L23.5326 32.5861C23.5326 32.5861 22.7329 32.8989 22.7213 32.8819C22.7096 32.8648 21.6191 32.397 21.6191 32.397Z" fill="#6B7B3E"/>
<path d="M21.6191 32.397C22.1749 32.9108 22.4911 33.4501 22.4911 33.4501L23.5326 32.5861L21.6191 32.397Z" fill="#4B5B19"/>
<path d="M21.3967 33.9919C21.3967 33.9919 22.1963 33.4836 22.3634 33.28L22.5297 33.0769L23.3024 33.7339C23.3024 33.7339 22.5964 34.2228 22.5809 34.2083C22.5653 34.1939 21.3962 33.9911 21.3962 33.9911L21.3967 33.9919Z" fill="#6B7B3E"/>
<path d="M21.3965 33.9917C22.0555 34.3635 22.4884 34.8154 22.4884 34.8154L23.3027 33.7345L21.397 33.9925L21.3965 33.9917Z" fill="#4B5B19"/>
<path d="M21.5794 35.8438C21.5794 35.8438 22.2249 35.1495 22.3344 34.9112L22.4445 34.6725L23.3584 35.1129C23.3584 35.1129 22.7994 35.7642 22.7803 35.7544C22.7612 35.7447 21.5794 35.8438 21.5794 35.8438Z" fill="#6B7B3E"/>
<path d="M21.5801 35.8438C22.3116 36.0366 22.8444 36.3648 22.8444 36.3648L23.359 35.1128L21.5801 35.8438Z" fill="#4B5B19"/>
<path d="M21.9573 36.9242C21.9573 36.9242 22.6967 36.3308 22.8393 36.1097L22.9825 35.8893L23.8234 36.4579C23.8234 36.4579 23.1762 37.0215 23.1589 37.0094C23.1416 36.9973 21.9573 36.9242 21.9573 36.9242Z" fill="#6B7B3E"/>
<path d="M21.957 36.9243C22.6534 37.2207 23.1329 37.6227 23.1329 37.6227L23.8231 36.458L21.957 36.9243Z" fill="#4B5B19"/>
<path d="M22.3536 38.5513C22.3536 38.5513 22.9355 37.8037 23.0238 37.556L23.112 37.3084L24.0609 37.6668C24.0609 37.6668 23.5613 38.3652 23.542 38.3568C23.5226 38.3484 22.3536 38.5513 22.3536 38.5513Z" fill="#6B7B3E"/>
<path d="M22.3535 38.5513C23.0995 38.6785 23.6589 38.9591 23.6589 38.9591L24.0608 37.6668L22.3535 38.5513Z" fill="#4B5B19"/>
<path d="M22.9674 40.1006C22.9674 40.1006 23.3415 39.2297 23.3641 38.9675L23.3868 38.7054L24.3955 38.8129C24.3955 38.8129 24.0887 39.6141 24.0676 39.6114C24.0465 39.6088 22.9669 40.0998 22.9669 40.0998L22.9674 40.1006Z" fill="#6B7B3E"/>
<path d="M22.9668 40.1008C23.7208 40.0362 24.3326 40.1651 24.3326 40.1651L24.395 38.8131L22.9663 40.1L22.9668 40.1008Z" fill="#4B5B19"/>
<path d="M23.5312 41.2851C23.5312 41.2851 24.0693 40.5048 24.1429 40.2524L24.2165 39.9999L25.1847 40.3032C25.1847 40.3032 24.7265 41.029 24.7056 41.0217C24.686 41.0146 23.5307 41.2843 23.5307 41.2843L23.5312 41.2851Z" fill="#6B7B3E"/>
<path d="M23.5312 41.2852C24.2833 41.3696 24.8578 41.6172 24.8578 41.6172L25.1852 40.304L23.5312 41.2852Z" fill="#4B5B19"/>
<path d="M24.2977 42.7023C24.2977 42.7023 24.6404 41.8186 24.6549 41.5563L24.6682 41.2938L25.6802 41.366C25.6802 41.366 25.4012 42.1779 25.3806 42.176C25.3594 42.1734 24.2982 42.703 24.2982 42.703L24.2977 42.7023Z" fill="#6B7B3E"/>
<path d="M24.2968 42.702C25.0484 42.6106 25.6642 42.7186 25.6642 42.7186L25.6794 41.3658L24.2968 42.702Z" fill="#4B5B19"/>
<path d="M25.5425 44.0844C25.5425 44.0844 25.6514 43.1429 25.598 42.8859L25.5446 42.629L26.5421 42.4429C26.5421 42.4429 26.4771 43.2988 26.4569 43.3024C26.436 43.3052 25.5422 44.0857 25.5422 44.0857L25.5425 44.0844Z" fill="#6B7B3E"/>
<path d="M25.5432 44.0841C26.2471 43.8058 26.8701 43.7543 26.8701 43.7543L26.543 42.4414L25.5432 44.0841Z" fill="#4B5B19"/>
<path d="M26.4877 44.7309C26.4877 44.7309 26.7311 43.8148 26.716 43.5523L26.7008 43.2898L27.7146 43.2495C27.7146 43.2495 27.5273 44.0875 27.5056 44.0875C27.484 44.0875 26.4877 44.7309 26.4877 44.7309Z" fill="#6B7B3E"/>
<path d="M26.4879 44.7311C27.2241 44.557 27.8489 44.5963 27.8489 44.5963L27.7148 43.2497L26.4879 44.7311Z" fill="#4B5B19"/>
<path d="M27.7686 45.807C27.7686 45.807 27.7941 44.8599 27.7188 44.6076L27.6428 44.3558L28.6196 44.0826C28.6196 44.0826 28.6305 44.9414 28.61 44.9463C28.5895 44.9512 27.7678 45.8076 27.7678 45.8076L27.7686 45.807Z" fill="#6B7B3E"/>
<path d="M27.7689 45.8073C28.4451 45.4683 29.0616 45.3621 29.0616 45.3621L28.62 44.0829L27.7689 45.8073Z" fill="#4B5B19"/>
<path d="M29.3307 46.6111C29.3307 46.6111 29.1156 45.688 28.979 45.4639L28.8423 45.2399L29.7182 44.7285C29.7182 44.7285 29.9458 45.5567 29.9272 45.566C29.9082 45.5766 29.3299 46.6117 29.3299 46.6117L29.3307 46.6111Z" fill="#6B7B3E"/>
<path d="M29.3301 46.611C29.8994 46.1118 30.4683 45.8539 30.4683 45.8539L29.7176 44.7284L29.3293 46.6115L29.3301 46.611Z" fill="#4B5B19"/>
<path d="M28.1207 21.4923C28.1207 21.4923 29.0013 21.8439 29.2634 21.8598L29.5254 21.8757L29.4438 22.8873C29.4438 22.8873 28.6347 22.6006 28.6366 22.58C28.6393 22.5589 28.12 21.4928 28.12 21.4928L28.1207 21.4923Z" fill="#6B7B3E"/>
<path d="M28.1209 21.4925C28.2048 22.2448 28.0916 22.8595 28.0916 22.8595L29.4448 22.887L28.1217 21.492L28.1209 21.4925Z" fill="#4B5B19"/>
<path d="M24.9961 25.084C24.9961 25.084 25.9432 25.1243 26.1963 25.0519L26.4486 24.9801L26.7075 25.9609C26.7075 25.9609 25.8491 25.9591 25.8442 25.9386C25.8393 25.918 24.9961 25.084 24.9961 25.084Z" fill="#6B7B3E"/>
<path d="M24.9961 25.0841C25.3252 25.7659 25.421 26.3838 25.421 26.3838L26.7067 25.9616L24.9961 25.0841Z" fill="#4B5B19"/>
<path d="M25.8066 23.7974C25.8066 23.7974 26.7537 23.8377 27.0068 23.7653L27.2591 23.6935L27.518 24.6743C27.518 24.6743 26.6596 24.6725 26.6548 24.6519C26.6499 24.6314 25.8066 23.7974 25.8066 23.7974Z" fill="#6B7B3E"/>
<path d="M25.8066 23.7975C26.1358 24.4793 26.2316 25.0972 26.2316 25.0972L27.5172 24.675L25.8066 23.7975Z" fill="#4B5B19"/>
<path d="M26.873 22.5581C26.873 22.5581 27.8021 22.7471 28.0629 22.7161L28.3236 22.6851L28.4249 23.6949C28.4249 23.6949 27.578 23.5579 27.5759 23.5366C27.5739 23.5152 26.8736 22.5589 26.8736 22.5589L26.873 22.5581Z" fill="#6B7B3E"/>
<path d="M26.874 22.5583C27.0915 23.2832 27.0891 23.9088 27.0891 23.9088L28.4253 23.6943L26.874 22.5583Z" fill="#4B5B19"/>
<path d="M22.7695 31.02C22.7695 31.02 23.6654 30.7099 23.8741 30.5506L24.0828 30.3914L24.683 31.2091C24.683 31.2091 23.8833 31.522 23.8717 31.5049C23.86 31.4878 22.7695 31.02 22.7695 31.02Z" fill="#6B7B3E"/>
<path d="M22.7695 31.02C23.3253 31.5338 23.6415 32.0732 23.6415 32.0732L24.683 31.2091L22.7695 31.02Z" fill="#4B5B19"/>
<path d="M23.0391 29.6782C23.0391 29.6782 23.935 29.3681 24.1437 29.2088L24.3524 29.0496L24.9525 29.8673C24.9525 29.8673 24.1528 30.1802 24.1412 30.1631C24.1296 30.146 23.0391 29.6782 23.0391 29.6782Z" fill="#6B7B3E"/>
<path d="M23.0391 29.6782C23.5948 30.192 23.911 30.7314 23.911 30.7314L24.9525 29.8673L23.0391 29.6782Z" fill="#4B5B19"/>
<path d="M23.4832 28.0966C23.4832 28.0966 24.4143 27.9216 24.6447 27.7942L24.8743 27.6674L25.3479 28.5645C25.3479 28.5645 24.5115 28.7568 24.5022 28.7382C24.4929 28.7195 23.4824 28.0972 23.4824 28.0972L23.4832 28.0966Z" fill="#6B7B3E"/>
<path d="M23.4824 28.0964C23.9568 28.6861 24.1904 29.2659 24.1904 29.2659L25.3479 28.5638L23.4824 28.0964Z" fill="#4B5B19"/>
<path d="M24.1875 26.5967C24.1875 26.5967 25.1312 26.5086 25.3722 26.4035L25.6133 26.2984L26.0015 27.2355C26.0015 27.2355 25.1503 27.3493 25.1433 27.329C25.1355 27.3093 24.1883 26.5962 24.1883 26.5962L24.1875 26.5967Z" fill="#6B7B3E"/>
<path d="M24.1869 26.5968C24.6046 27.2284 24.7831 27.8276 24.7831 27.8276L26.0001 27.2362L24.1861 26.5973L24.1869 26.5968Z" fill="#4B5B19"/>
<path d="M22.6035 32.479C22.6035 32.479 23.4994 32.1688 23.7081 32.0096L23.9168 31.8504L24.517 32.6681C24.517 32.6681 23.7173 32.981 23.7056 32.9639C23.694 32.9468 22.6035 32.479 22.6035 32.479Z" fill="#6B7B3E"/>
<path d="M22.6035 32.479C23.1592 32.9928 23.4755 33.5322 23.4755 33.5322L24.517 32.6681L22.6035 32.479Z" fill="#4B5B19"/>
<path d="M22.3811 34.0734C22.3811 34.0734 23.1807 33.5651 23.3478 33.3615L23.5141 33.1584L24.2867 33.8155C24.2867 33.8155 23.5808 34.3043 23.5652 34.2899C23.5497 34.2754 22.3806 34.0726 22.3806 34.0726L22.3811 34.0734Z" fill="#6B7B3E"/>
<path d="M22.3809 34.0732C23.0399 34.445 23.4728 34.897 23.4728 34.897L24.287 33.8161L22.3814 34.074L22.3809 34.0732Z" fill="#4B5B19"/>
<path d="M23.1877 34.862C23.1877 34.862 23.9873 34.3537 24.1544 34.1501L24.3207 33.947L25.0934 34.604C25.0934 34.604 24.3874 35.0929 24.3719 35.0785C24.3563 35.064 23.1872 34.8612 23.1872 34.8612L23.1877 34.862Z" fill="#6B7B3E"/>
<path d="M23.1875 34.8618C23.8473 35.2331 24.2794 35.6855 24.2794 35.6855L25.0937 34.6046L23.188 34.8626L23.1875 34.8618Z" fill="#4B5B19"/>
<path d="M23.553 33.322C23.553 33.322 24.3526 32.8137 24.5196 32.61L24.6859 32.407L25.4586 33.064C25.4586 33.064 24.7526 33.5528 24.7371 33.5384C24.7216 33.524 23.5524 33.3212 23.5524 33.3212L23.553 33.322Z" fill="#6B7B3E"/>
<path d="M23.5527 33.3218C24.2126 33.693 24.6447 34.1455 24.6447 34.1455L25.4589 33.0646L23.5533 33.3226L23.5527 33.3218Z" fill="#4B5B19"/>
<path d="M23.7737 31.717C23.7737 31.717 24.5733 31.2087 24.7403 31.0051L24.9066 30.802L25.6798 31.4598C25.6798 31.4598 24.9738 31.9486 24.9583 31.9342C24.9428 31.9198 23.7737 31.717 23.7737 31.717Z" fill="#6B7B3E"/>
<path d="M23.7734 31.7168C24.4333 32.088 24.8654 32.5405 24.8654 32.5405L25.6796 31.4596L23.774 31.7176L23.7734 31.7168Z" fill="#4B5B19"/>
<path d="M24.4043 29.3779C24.4043 29.3779 25.3247 29.1522 25.548 29.0127L25.7704 28.8736L26.2924 29.7434C26.2924 29.7434 25.4677 29.9812 25.4571 29.9623C25.4465 29.9434 24.4043 29.3779 24.4043 29.3779Z" fill="#6B7B3E"/>
<path d="M24.4043 29.3779C24.9102 29.9404 25.1752 30.5079 25.1752 30.5079L26.2924 29.7434L24.4043 29.3779Z" fill="#4B5B19"/>
<path d="M24.7637 27.6704C24.7637 27.6704 25.6841 27.4447 25.9073 27.3051L26.1298 27.1661L26.6518 28.0359C26.6518 28.0359 25.8271 28.2737 25.8165 28.2548C25.8059 28.2359 24.7637 27.6704 24.7637 27.6704Z" fill="#6B7B3E"/>
<path d="M24.7637 27.6704C25.2696 28.2329 25.5345 28.8004 25.5345 28.8004L26.6518 28.0359L24.7637 27.6704Z" fill="#4B5B19"/>
<path d="M22.5638 35.9254C22.5638 35.9254 23.2093 35.231 23.3187 34.9928L23.4289 34.754L24.3427 35.1944C24.3427 35.1944 23.7838 35.8457 23.7647 35.836C23.7455 35.8263 22.5638 35.9254 22.5638 35.9254Z" fill="#6B7B3E"/>
<path d="M22.5645 35.9253C23.296 36.1181 23.8288 36.4463 23.8288 36.4463L24.3434 35.1943L22.5645 35.9253Z" fill="#4B5B19"/>
<path d="M22.9417 37.0057C22.9417 37.0057 23.681 36.4123 23.8237 36.1912L23.9669 35.9709L24.8077 36.5394C24.8077 36.5394 24.1606 37.103 24.1433 37.0909C24.126 37.0788 22.9417 37.0057 22.9417 37.0057Z" fill="#6B7B3E"/>
<path d="M22.9414 37.0059C23.6378 37.3022 24.1173 37.7042 24.1173 37.7042L24.8074 36.5396L22.9414 37.0059Z" fill="#4B5B19"/>
<path d="M23.338 38.6324C23.338 38.6324 23.9199 37.8847 24.0081 37.6371L24.0963 37.3894L25.0453 37.7479C25.0453 37.7479 24.5457 38.4463 24.5263 38.4379C24.507 38.4295 23.338 38.6324 23.338 38.6324Z" fill="#6B7B3E"/>
<path d="M23.3379 38.6323C24.0839 38.7596 24.6433 39.0401 24.6433 39.0401L25.0452 37.7478L23.3379 38.6323Z" fill="#4B5B19"/>
<path d="M23.9537 40.1821C23.9537 40.1821 24.3278 39.3112 24.3505 39.0491L24.3731 38.787L25.3819 38.8944C25.3819 38.8944 25.0751 39.6956 25.0539 39.693C25.0328 39.6903 23.9532 40.1814 23.9532 40.1814L23.9537 40.1821Z" fill="#6B7B3E"/>
<path d="M23.9531 40.1824C24.7071 40.1178 25.319 40.2466 25.319 40.2466L25.3813 38.8947L23.9526 40.1816L23.9531 40.1824Z" fill="#4B5B19"/>
<path d="M24.5175 41.3657C24.5175 41.3657 25.0557 40.5854 25.1292 40.3329L25.2028 40.0805L26.171 40.3838C26.171 40.3838 25.7128 41.1096 25.6919 41.1023C25.6723 41.0952 24.517 41.3649 24.517 41.3649L24.5175 41.3657Z" fill="#6B7B3E"/>
<path d="M24.5176 41.3657C25.2697 41.4502 25.8441 41.6978 25.8441 41.6978L26.1716 40.3846L24.5176 41.3657Z" fill="#4B5B19"/>
<path d="M25.282 42.7828C25.282 42.7828 25.6247 41.8992 25.6393 41.6369L25.6526 41.3744L26.6646 41.4466C26.6646 41.4466 26.3856 42.2585 26.3649 42.2566C26.3438 42.2539 25.2826 42.7836 25.2826 42.7836L25.282 42.7828Z" fill="#6B7B3E"/>
<path d="M25.2812 42.7826C26.0328 42.6912 26.6486 42.7992 26.6486 42.7992L26.6638 41.4464L25.2812 42.7826Z" fill="#4B5B19"/>
<path d="M26.5269 44.1664C26.5269 44.1664 26.6358 43.2249 26.5824 42.968L26.529 42.711L27.5265 42.5249C27.5265 42.5249 27.4615 43.3808 27.4412 43.3844C27.4204 43.3872 26.5266 44.1677 26.5266 44.1677L26.5269 44.1664Z" fill="#6B7B3E"/>
<path d="M26.5275 44.1662C27.2314 43.8879 27.8545 43.8363 27.8545 43.8363L27.5274 42.5234L26.5275 44.1662Z" fill="#4B5B19"/>
<path d="M27.4721 44.8129C27.4721 44.8129 27.7154 43.8969 27.7003 43.6344L27.6852 43.3719L28.699 43.3315C28.699 43.3315 28.5116 44.1696 28.49 44.1695C28.4684 44.1695 27.4721 44.8129 27.4721 44.8129Z" fill="#6B7B3E"/>
<path d="M27.4723 44.8131C28.2085 44.639 28.8332 44.6784 28.8332 44.6784L28.6992 43.3317L27.4723 44.8131Z" fill="#4B5B19"/>
<path d="M28.7549 45.8881C28.7549 45.8881 28.7804 44.9409 28.7052 44.6886L28.6292 44.4369L29.606 44.1637C29.606 44.1637 29.6169 45.0225 29.5963 45.0274C29.5758 45.0323 28.7541 45.8886 28.7541 45.8886L28.7549 45.8881Z" fill="#6B7B3E"/>
<path d="M28.7553 45.8883C29.4315 45.5494 30.048 45.4431 30.048 45.4431L29.6063 44.1639L28.7553 45.8883Z" fill="#4B5B19"/>
<path d="M30.3151 46.6927C30.3151 46.6927 30.1 45.7695 29.9633 45.5455L29.8266 45.3214L30.7025 44.81C30.7025 44.81 30.9302 45.6382 30.9115 45.6475C30.8926 45.6581 30.3143 46.6932 30.3143 46.6932L30.3151 46.6927Z" fill="#6B7B3E"/>
<path d="M30.3145 46.6925C30.8838 46.1933 31.4527 45.9354 31.4527 45.9354L30.7019 44.8099L30.3137 46.6931L30.3145 46.6925Z" fill="#4B5B19"/>
<path d="M23.9605 36.1045C23.9605 36.1045 24.7778 35.624 24.9504 35.4268L25.1238 35.2291L25.8738 35.9129C25.8738 35.9129 25.1522 36.3772 25.1362 36.362C25.1214 36.347 23.96 36.1038 23.96 36.1038L23.9605 36.1045Z" fill="#6B7B3E"/>
<path d="M23.9609 36.1045C24.6069 36.4988 25.0236 36.9653 25.0236 36.9653L25.8743 35.9129L23.9609 36.1045Z" fill="#4B5B19"/>
<path d="M23.9449 35.1978C23.9449 35.1978 24.7622 34.7172 24.9348 34.5201L25.1082 34.3224L25.8582 35.0062C25.8582 35.0062 25.1366 35.4704 25.1205 35.4552C25.1058 35.4403 23.9443 35.197 23.9443 35.197L23.9449 35.1978Z" fill="#6B7B3E"/>
<path d="M23.9453 35.1978C24.5913 35.5921 25.0079 36.0585 25.0079 36.0585L25.8586 35.0062L23.9453 35.1978Z" fill="#4B5B19"/>
<path d="M24.146 37.877C24.146 37.877 24.9634 37.3964 25.136 37.1993L25.3094 37.0016L26.0594 37.6854C26.0594 37.6854 25.3378 38.1496 25.3217 38.1344C25.307 38.1195 24.1455 37.8762 24.1455 37.8762L24.146 37.877Z" fill="#6B7B3E"/>
<path d="M24.1465 37.877C24.7925 38.2713 25.2091 38.7377 25.2091 38.7377L26.0598 37.6854L24.1465 37.877Z" fill="#4B5B19"/>
<path d="M37.4522 20.5315C37.4522 20.5315 37.1555 21.5145 37.1618 21.799L37.1693 22.0837L36.07 22.0903C36.07 22.0903 36.3036 21.19 36.3258 21.1908C36.3487 21.1911 37.4508 20.5313 37.4508 20.5313L37.4522 20.5315Z" fill="#6B7B3E"/>
<path d="M37.4524 20.5317C36.6483 20.6929 35.9743 20.628 35.9743 20.628L36.0708 22.0912L37.4524 20.5317Z" fill="#4B5B19"/>
<path d="M38.667 21.4593C38.667 21.4593 38.3704 22.4423 38.3766 22.7268L38.3841 23.0115L37.2848 23.018C37.2848 23.018 37.5184 22.1177 37.5414 22.118C37.5643 22.1183 38.6665 21.4585 38.6665 21.4585L38.667 21.4593Z" fill="#6B7B3E"/>
<path d="M38.6672 21.4594C37.8631 21.6207 37.1892 21.5557 37.1892 21.5557L37.2856 23.0189L38.6672 21.4594Z" fill="#4B5B19"/>
<path d="M38.5306 22.995C38.5306 22.995 38.0026 23.8752 37.9397 24.1534L37.8776 24.431L36.8103 24.1691C36.8103 24.1691 37.2571 23.3532 37.2788 23.36C37.3013 23.3663 38.5312 22.9957 38.5312 22.9957L38.5306 22.995Z" fill="#6B7B3E"/>
<path d="M38.5314 22.9951C37.7128 22.9548 37.0744 22.7269 37.0744 22.7269L36.8097 24.169L38.5319 22.9959L38.5314 22.9951Z" fill="#4B5B19"/>
<path d="M37.4302 22.4673C37.4302 22.4673 37.1265 23.4482 37.1319 23.7333L37.1374 24.0183L36.038 24.018C36.038 24.018 36.2774 23.1195 36.3003 23.1198C36.3238 23.1209 37.4302 22.4673 37.4302 22.4673Z" fill="#6B7B3E"/>
<path d="M37.431 22.4672C36.6258 22.6235 35.952 22.5539 35.952 22.5539L36.0388 24.018L37.4302 22.4677L37.431 22.4672Z" fill="#4B5B19"/>
<path d="M36.0408 20.5705C36.0408 20.5705 35.7575 21.5581 35.7687 21.8415L35.7796 22.1262L34.6807 22.1483C34.6807 22.1483 34.9013 21.2456 34.925 21.2453C34.9479 21.2456 36.0416 20.57 36.0416 20.57L36.0408 20.5705Z" fill="#6B7B3E"/>
<path d="M36.0416 20.5705C35.24 20.7437 34.565 20.6874 34.565 20.6874L34.682 22.1491L36.0421 20.5712L36.0416 20.5705Z" fill="#4B5B19"/>
<path d="M34.5809 18.7228C34.5809 18.7228 34.675 19.7454 34.7891 20.0064L34.9033 20.2674L33.8878 20.6875C33.8878 20.6875 33.7658 19.7657 33.7863 19.7574C33.8081 19.7494 34.5809 18.7228 34.5809 18.7228Z" fill="#6B7B3E"/>
<path d="M34.5813 18.7227C33.8971 19.1752 33.2473 19.3677 33.2473 19.3677L33.8869 20.6871L34.5813 18.7227Z" fill="#4B5B19"/>
<path d="M32.7738 18.5015C32.7738 18.5015 33.43 19.2912 33.671 19.4431L33.9122 19.5936L33.3117 20.5142C33.3117 20.5142 32.6895 19.8229 32.7026 19.8037C32.7157 19.7846 32.7738 18.5015 32.7738 18.5015Z" fill="#6B7B3E"/>
<path d="M32.7729 18.5015C32.4639 19.261 32.0373 19.788 32.0373 19.788L33.3107 20.5143L32.7729 18.5015Z" fill="#4B5B19"/>
<path d="M31.9476 19.478C31.9476 19.478 32.6038 20.2678 32.8448 20.4196L33.086 20.5702L32.4855 21.4908C32.4855 21.4908 31.8634 20.7995 31.877 20.7811C31.8901 20.7619 31.9482 19.4788 31.9482 19.4788L31.9476 19.478Z" fill="#6B7B3E"/>
<path d="M31.9467 19.478C31.6377 20.2376 31.2112 20.7645 31.2112 20.7645L32.4845 21.4908L31.9467 19.478Z" fill="#4B5B19"/>
<path d="M34.7946 20.2672C34.7946 20.2672 34.5766 21.2706 34.606 21.554L34.6362 21.837L33.5412 21.9315C33.5412 21.9315 33.7019 21.0161 33.7246 21.0143C33.7478 21.0133 34.7938 20.2678 34.7938 20.2678L34.7946 20.2672Z" fill="#6B7B3E"/>
<path d="M34.7941 20.2672C34.0057 20.4916 33.3284 20.4801 33.3284 20.4801L33.5414 21.931L34.7948 20.2666L34.7941 20.2672Z" fill="#4B5B19"/>
<path d="M33.2034 20.0863C33.2034 20.0863 32.2766 21.0802 31.9722 20.9806C31.6672 20.8815 31.5507 20.3618 31.5507 20.3618C31.5507 20.3618 31.247 21.0006 30.865 21.1358C30.4831 21.2709 30.3135 20.6748 30.3135 20.6748L30.2549 20.9376C30.1963 21.2003 30.06 21.5727 29.837 21.6541C29.6145 21.7364 29.2825 21.2089 29.2825 21.2089C29.2825 21.2089 29.4448 21.7542 29.0399 22.2244C28.6355 22.6954 27.9986 21.9857 27.9986 21.9857C27.9986 21.9857 28.1469 22.3871 28.2422 22.7121C28.3109 22.9449 28.2854 23.176 28.1748 23.3207C28.1982 23.2115 28.2062 23.1583 28.1924 23.178C28.1659 23.2176 28.1413 23.29 28.1149 23.3831C28.0821 23.41 28.0448 23.432 28.0027 23.447C27.754 23.5323 27.0696 23.1618 27.0696 23.1618C27.0696 23.1618 27.768 24.3606 27.5957 24.645C27.5625 24.6881 27.5282 24.7296 27.4916 24.7693C26.9947 25.2931 25.9551 24.8782 25.9551 24.8782C25.9551 24.8782 26.9594 26.0071 26.5645 26.3386C26.1697 26.6701 25.1929 26.7614 25.1929 26.7614C25.1929 26.7614 26.5457 27.5291 26.2501 28.018C25.9551 28.5077 25.0712 28.7438 25.0712 28.7438C25.0712 28.7438 25.1454 28.7626 25.5956 29.0413C25.9907 29.286 26.0931 29.6016 25.9999 29.947C25.5531 30.3957 24.6232 30.2289 24.6232 30.2289C24.6232 30.2289 25.8338 31.1332 25.5144 31.5372C25.1951 31.9411 24.2557 32.2275 24.2557 32.2275C24.2557 32.2275 25.7348 32.7068 25.544 33.246C25.3532 33.7852 24.5346 34.1939 24.5346 34.1939C24.5346 34.1939 24.611 34.1976 25.1079 34.3797C25.36 34.4728 25.5203 34.608 25.6077 34.7747C25.6103 34.8468 25.6079 34.9269 25.5955 35.0138C25.5354 35.4446 24.6355 35.3517 24.6355 35.3517C24.6355 35.3517 25.4806 35.8548 25.5379 36.2943C25.5952 36.7338 24.5604 36.9602 24.5604 36.9602C24.5604 36.9602 25.7171 37.4033 25.6995 37.7313C25.6811 38.0598 24.9439 38.8599 24.9822 38.8895C25.0205 38.919 26.0599 38.8612 26.0599 38.8612L25.295 39.9211L26.1671 39.7545L25.3646 41.3048L26.4912 41.0763L26.0209 42.6788L27.2993 42.2911L27.236 43.1527L27.6992 43.0417C27.6992 43.0417 29.1283 45.2682 30.4865 45.3729C33.5021 45.6047 36.8643 43.2531 37.8733 37.4585C38.1951 35.6114 38.2954 31.9488 38.292 31.1679C38.2826 29.0964 37.6821 26.2373 37.3273 25.3593C35.5773 21.0314 33.709 20.8536 33.3679 20.9052C33.0268 20.9568 33.1995 20.0855 33.1995 20.0855L33.2034 20.0863Z" fill="#FFE6C1"/>
<path d="M27.594 27.4881C26.9966 29.2761 26.5093 33.3501 26.6138 34.9636C26.7177 36.5764 26.7342 38.4179 27.3283 39.6422C27.9224 40.8665 29.1362 42.5132 29.3131 43.1918C29.49 43.8704 30.2768 45.3226 31.468 44.9602C32.6596 44.5986 33.1386 44.3872 34.8878 42.2192C36.6363 40.0517 37.4132 38.1652 37.4766 36.259C37.5404 34.3535 37.2236 33.1609 37.2004 31.9286C37.1654 30.0166 36.2771 24.5322 34.2115 22.2006C33.2384 21.1026 30.0596 20.1022 27.5929 27.4865L27.594 27.4881Z" fill="#F4C895"/>
<path d="M27.3805 34.1964C27.3805 34.1964 27.351 38.1314 27.6901 39.1132C28.0293 40.0951 29.1164 41.3757 29.4466 41.9806C29.7768 42.5855 30.0955 43.2936 30.2352 43.7407C30.3749 44.1878 30.9647 44.7716 31.62 44.3786C32.2754 43.9856 33.2677 42.7106 34.0768 41.6706C34.8865 40.6315 36.083 39.1071 36.2925 38.4518C36.5019 37.7964 36.5031 36.7635 36.6233 35.1994C36.7426 33.6357 36.6006 32.3843 36.6348 32.0189C36.7838 30.4203 36.0156 27.0765 36.0156 27.0765L29.0255 34.5888L27.3813 34.1959L27.3805 34.1964Z" fill="#E77F40"/>
<path d="M30.7858 43.7026C30.9834 43.8875 31.2835 43.9092 31.5066 43.7561C32.2693 43.2354 32.1472 42.8526 34.6208 39.8456C35.7737 38.4441 36.0886 36.3131 36.0822 35.1456C36.0752 33.9772 36.6578 31.3648 36.2964 28.3327C35.9349 25.3006 34.3806 22.69 33.4834 22.1656C32.7956 21.7633 29.5825 21.5786 28.327 26.152C27.0716 30.7254 27.18 33.5729 27.3456 35.8052C27.5112 38.0375 27.7404 39.2318 29.289 41.1097C30.98 43.16 30.3003 43.2501 30.7851 43.7031L30.7858 43.7026Z" fill="#FFCA00"/>
<path d="M30.3148 23.3163C30.0425 23.6257 29.8152 23.9795 29.6181 24.3411C28.8066 25.8248 28.4168 27.5238 28.5025 29.1932C28.5557 30.2358 28.9061 31.1156 29.3624 32.0359C29.7637 32.8435 30.934 32.8295 31.6555 32.4518C32.3738 32.0762 32.8237 31.3366 33.1544 30.6021C34.1586 28.3767 34.6711 25.5563 33.5292 23.3309C33.2576 22.802 32.8684 22.3874 32.2309 22.351C31.796 22.3267 31.3613 22.4796 30.9934 22.7188C30.7381 22.8847 30.5135 23.0889 30.3135 23.3161L30.3148 23.3163Z" fill="#FFDF82"/>
<path d="M28.0319 38.4302C28.0303 38.4745 28.0338 38.5198 28.0424 38.564C28.0868 38.8111 28.2176 39.0733 28.3269 39.2989C28.4629 39.5802 28.6235 39.8494 28.8051 40.1042C29.4661 41.0362 30.2339 41.6829 30.4033 42.2586C30.5727 42.8344 30.772 43.3739 31.1357 43.267C31.4981 43.16 31.932 42.2733 32.559 41.4382C33.1859 40.603 34.2761 39.3682 34.6463 38.5784C35.0157 37.789 35.2718 36.0323 35.3436 35.2332C35.4153 34.434 35.5599 33.0977 35.6142 32.4298C35.6691 31.7627 35.0596 31.8641 34.4712 34.1894C33.8828 36.5147 33.0711 38.0065 32.0567 38.9987C31.5785 39.4665 30.9113 39.6835 30.2491 39.6275C29.9875 39.6057 29.724 39.5442 29.487 39.4282C29.1652 39.2712 28.9895 38.9749 28.7643 38.7043C28.6261 38.5381 28.4863 38.373 28.344 38.2108C28.3034 38.1645 28.2495 38.1137 28.1896 38.1261C28.1538 38.1335 28.1267 38.1621 28.1061 38.192C28.0592 38.2616 28.0373 38.3446 28.034 38.4299L28.0319 38.4302Z" fill="#FFB41A"/>
<path d="M27.9963 35.945C27.8959 35.9077 27.7855 35.9726 27.7688 36.0783C27.7453 36.2274 27.7858 36.4487 28.108 36.6714C28.6701 37.0593 29.8904 37.3773 30.1958 37.1715C30.502 36.9652 30.2031 36.7733 29.6787 36.686C29.1548 36.5995 28.7655 36.4918 28.5319 36.3258C28.2984 36.1598 28.1106 35.9877 27.9989 35.9455C27.9984 35.9447 27.9971 35.9445 27.9958 35.9442L27.9963 35.945Z" fill="#FFB41A"/>
<path d="M28.2145 37.3187C28.3355 37.4329 29.2839 37.8906 29.539 37.9214C29.795 37.9517 29.6972 38.0502 29.5904 38.0786C29.4836 38.107 28.9091 37.8845 28.5185 37.6481C28.1279 37.4118 27.9723 37.337 28.0112 37.2855C28.05 37.2341 28.2145 37.3187 28.2145 37.3187Z" fill="#FFB41A"/>
<path d="M32.6461 35.5031C33.1978 35.6855 34.4265 35.7704 34.9718 35.533C35.5164 35.2962 35.732 34.0024 35.357 34.0509C34.9812 34.1 34.3345 34.7793 33.6517 34.8181C32.9688 34.857 32.5453 34.9045 32.4278 35.1141C32.3103 35.3238 32.5405 35.4682 32.6461 35.5031Z" fill="#FFB41A"/>
<path d="M27.8826 32.5291C27.8826 32.5291 27.8737 34.1198 27.9523 34.6607C28.0309 35.2017 28.8212 35.8979 29.4787 35.957C30.1362 36.0161 31.4096 35.3339 31.6478 34.3169C31.8867 33.2993 31.0726 33.2639 30.1309 33.1665C29.1893 33.069 28.7312 31.6805 28.3259 31.6747C27.9206 31.6688 27.8813 32.5289 27.8813 32.5289L27.8826 32.5291Z" fill="#FFDF82"/>
</svg>
