<svg width="96" height="40" viewBox="0 0 96 40" fill="none" xmlns="http://www.w3.org/2000/svg">
<path d="M0.399414 29.0596L7.78223 28.2949C7.99316 29.9648 8.61719 31.292 9.6543 32.2764C10.6914 33.2432 11.8867 33.7266 13.2402 33.7266C14.7871 33.7266 16.0967 33.1025 17.1689 31.8545C18.2412 30.5889 18.7773 28.6904 18.7773 26.1592C18.7773 23.7861 18.2412 22.0107 17.1689 20.833C16.1143 19.6377 14.7344 19.04 13.0293 19.04C10.9023 19.04 8.99512 19.9805 7.30762 21.8613L1.2959 20.9912L5.09277 0.873047H24.6836V7.80762H10.709L9.54883 14.373C11.2012 13.5469 12.8887 13.1338 14.6113 13.1338C17.8984 13.1338 20.6846 14.3291 22.9697 16.7197C25.2549 19.1104 26.3975 22.2129 26.3975 26.0273C26.3975 29.209 25.4746 32.0479 23.6289 34.5439C21.1152 37.9541 17.626 39.6592 13.1611 39.6592C9.59277 39.6592 6.68359 38.7012 4.43359 36.7852C2.18359 34.8691 0.838867 32.2939 0.399414 29.0596ZM43.357 0.1875C47.1011 0.1875 50.0279 1.52344 52.1372 4.19531C54.6509 7.35938 55.9077 12.6064 55.9077 19.9365C55.9077 27.249 54.6421 32.5049 52.1109 35.7041C50.0191 38.3408 47.1011 39.6592 43.357 39.6592C39.5952 39.6592 36.563 38.2178 34.2603 35.335C31.9575 32.4346 30.8062 27.2754 30.8062 19.8574C30.8062 12.5801 32.0718 7.3418 34.603 4.14258C36.6948 1.50586 39.6128 0.1875 43.357 0.1875ZM43.357 6.33105C42.4605 6.33105 41.6607 6.62109 40.9575 7.20117C40.2544 7.76367 39.7095 8.7832 39.3228 10.2598C38.813 12.1758 38.5581 15.4014 38.5581 19.9365C38.5581 24.4717 38.7866 27.5918 39.2437 29.2969C39.7007 30.9844 40.272 32.1094 40.9575 32.6719C41.6607 33.2344 42.4605 33.5156 43.357 33.5156C44.2534 33.5156 45.0532 33.2344 45.7564 32.6719C46.4595 32.0918 47.0044 31.0635 47.3911 29.5869C47.9009 27.6885 48.1558 24.4717 48.1558 19.9365C48.1558 15.4014 47.9273 12.29 47.4702 10.6025C47.0132 8.89746 46.4331 7.76367 45.73 7.20117C45.0445 6.62109 44.2534 6.33105 43.357 6.33105Z" fill="white"/>
<path d="M64.9014 4.66504C64.9014 3.5332 65.1271 2.66732 65.5786 2.06738C66.0301 1.46745 66.5837 1.16748 67.2393 1.16748C67.9196 1.16748 68.4948 1.46745 68.9648 2.06738C69.4349 2.66732 69.6699 3.56413 69.6699 4.75781C69.6699 5.92676 69.4349 6.82048 68.9648 7.43896C68.4948 8.05127 67.9258 8.35742 67.2578 8.35742C66.6022 8.35742 66.0456 8.05436 65.5879 7.44824C65.1302 6.83594 64.9014 5.9082 64.9014 4.66504ZM67.2856 2.31787C66.9455 2.31787 66.661 2.50033 66.4321 2.86523C66.2095 3.22396 66.0981 3.85791 66.0981 4.76709C66.0981 5.67627 66.2095 6.31022 66.4321 6.66895C66.661 7.02767 66.9548 7.20703 67.3135 7.20703C67.6413 7.20703 67.9165 7.02767 68.1392 6.66895C68.368 6.30404 68.4824 5.67008 68.4824 4.76709C68.4824 3.8641 68.368 3.23014 68.1392 2.86523C67.9103 2.50033 67.6258 2.31787 67.2856 2.31787ZM67.2856 15.501L73.3901 1.16748H74.5034L68.4268 15.501H67.2856ZM72.1191 11.8086C72.1191 10.6768 72.3449 9.81087 72.7964 9.21094C73.2479 8.611 73.7983 8.31104 74.4478 8.31104C75.1343 8.31104 75.7126 8.611 76.1826 9.21094C76.6527 9.80469 76.8877 10.6984 76.8877 11.8921C76.8877 13.0672 76.6496 13.964 76.1733 14.5825C75.7033 15.1948 75.1374 15.501 74.4756 15.501C73.82 15.501 73.2633 15.1948 72.8057 14.5825C72.348 13.9702 72.1191 13.0456 72.1191 11.8086ZM74.5034 9.46143C74.1571 9.46143 73.8695 9.64388 73.6406 10.0088C73.418 10.3675 73.3066 11.0015 73.3066 11.9106C73.3066 12.8198 73.4211 13.4538 73.6499 13.8125C73.8787 14.1712 74.1725 14.3506 74.5312 14.3506C74.8529 14.3506 75.125 14.1681 75.3477 13.8032C75.5765 13.4383 75.6909 12.8044 75.6909 11.9014C75.6909 10.9984 75.5765 10.3675 75.3477 10.0088C75.125 9.64388 74.8436 9.46143 74.5034 9.46143ZM64.8179 31.376C64.8179 29.0566 65.3281 27.2754 66.3486 26.0322C67.3691 24.7829 68.6401 24.1582 70.1616 24.1582C71.145 24.1582 72.0418 24.4365 72.8521 24.9932C73.6623 25.5498 74.3024 26.36 74.7725 27.4238C75.2487 28.4814 75.4868 29.7432 75.4868 31.209C75.4868 33.2253 75.0291 34.8674 74.1138 36.1353C73.1056 37.533 71.7852 38.2319 70.1523 38.2319C68.5072 38.2319 67.1836 37.5145 66.1816 36.0796C65.2725 34.7808 64.8179 33.2129 64.8179 31.376ZM66.3394 31.4038C66.3394 33.0799 66.7074 34.3818 67.4434 35.3096C68.1855 36.2311 69.0854 36.6919 70.1431 36.6919C71.2254 36.6919 72.1315 36.2249 72.8613 35.291C73.5973 34.3571 73.9653 32.984 73.9653 31.1719C73.9653 30.0029 73.7767 28.9577 73.3994 28.0361C73.1087 27.3311 72.6696 26.7682 72.082 26.3477C71.5007 25.9209 70.8636 25.7075 70.1709 25.7075C69.0576 25.7075 68.1392 26.1714 67.4155 27.0991C66.6981 28.0269 66.3394 29.4618 66.3394 31.4038ZM77.9522 38V24.3994H85.4761V26.0044H79.4273V30.2163H84.6597V31.8213H79.4273V38H77.9522ZM87.9507 38V24.3994H95.4746V26.0044H89.4258V30.2163H94.6582V31.8213H89.4258V38H87.9507Z" fill="white"/>
</svg>
