<svg width="60" height="75" viewBox="0 0 60 75" fill="none" xmlns="http://www.w3.org/2000/svg">
<rect x="0.519531" y="0.25" width="59.48" height="73.98" rx="5" fill="black" fill-opacity="0.7"/>
<path d="M26.4443 35.25H23.2886V23.3569C22.1356 24.4351 20.7767 25.2324 19.2119 25.749V22.8853C20.0355 22.6157 20.9302 22.1066 21.896 21.3579C22.8618 20.6017 23.5244 19.722 23.8838 18.7188H26.4443V35.25ZM36.9868 18.7188C38.5816 18.7188 39.8281 19.2878 40.7266 20.4258C41.7972 21.7734 42.3325 24.0083 42.3325 27.1304C42.3325 30.245 41.7935 32.4836 40.7154 33.8462C39.8244 34.9692 38.5816 35.5308 36.9868 35.5308C35.3846 35.5308 34.0931 34.9168 33.1123 33.689C32.1315 32.4536 31.6411 30.2562 31.6411 27.0967C31.6411 23.9971 32.1802 21.766 33.2583 20.4033C34.1493 19.2803 35.3921 18.7188 36.9868 18.7188ZM36.9868 21.3354C36.605 21.3354 36.2643 21.459 35.9649 21.7061C35.6654 21.9456 35.4333 22.3799 35.2686 23.0088C35.0515 23.8249 34.9429 25.1987 34.9429 27.1304C34.9429 29.062 35.0402 30.391 35.2349 31.1172C35.4295 31.8359 35.6729 32.3151 35.9649 32.5547C36.2643 32.7943 36.605 32.9141 36.9868 32.9141C37.3687 32.9141 37.7093 32.7943 38.0088 32.5547C38.3083 32.3076 38.5404 31.8696 38.7051 31.2407C38.9222 30.4321 39.0308 29.062 39.0308 27.1304C39.0308 25.1987 38.9335 23.8735 38.7388 23.1548C38.5441 22.4285 38.2971 21.9456 37.9976 21.7061C37.7056 21.459 37.3687 21.3354 36.9868 21.3354Z" fill="white"/>
<path d="M24.5315 49.3164C24.5315 49.9639 24.4402 50.5588 24.2576 51.1011C24.075 51.6379 23.8121 52.0999 23.469 52.4873C23.1259 52.8691 22.7081 53.168 22.2156 53.3838C21.7231 53.5941 21.1642 53.6992 20.5388 53.6992C19.9412 53.6992 19.4044 53.6079 18.9285 53.4253C18.4581 53.2371 18.0569 52.9632 17.7249 52.6035C17.3984 52.2438 17.1466 51.7983 16.9695 51.2671C16.798 50.7358 16.7122 50.1243 16.7122 49.4326C16.7122 48.7852 16.8035 48.1958 16.9861 47.6646C17.1687 47.1278 17.4316 46.6685 17.7747 46.2866C18.1178 45.8993 18.5356 45.6004 19.0281 45.3901C19.5206 45.1743 20.0795 45.0664 20.7049 45.0664C21.3025 45.0664 21.8365 45.1605 22.3069 45.3486C22.7828 45.5312 23.184 45.8024 23.5105 46.1621C23.8426 46.5163 24.0943 46.959 24.2659 47.4902C24.443 48.0215 24.5315 48.6302 24.5315 49.3164ZM23.054 49.3828C23.054 48.8682 22.9959 48.4199 22.8797 48.0381C22.769 47.6507 22.6085 47.3298 22.3982 47.0752C22.1879 46.8151 21.9306 46.6214 21.6262 46.4941C21.3274 46.3613 20.9926 46.2949 20.6219 46.2949C20.1902 46.2949 19.8194 46.3807 19.5095 46.5522C19.2052 46.7183 18.9534 46.9424 18.7542 47.2246C18.5605 47.5068 18.4166 47.8361 18.3225 48.2124C18.234 48.5832 18.1897 48.9733 18.1897 49.3828C18.1897 49.8975 18.2451 50.3485 18.3557 50.7358C18.4719 51.1232 18.6352 51.4469 18.8455 51.707C19.0558 51.9616 19.3103 52.1553 19.6092 52.2881C19.908 52.4154 20.2455 52.479 20.6219 52.479C21.0535 52.479 21.4215 52.396 21.7259 52.23C22.0358 52.0584 22.2875 51.8315 22.4812 51.5493C22.6804 51.2671 22.8243 50.9406 22.9129 50.5698C23.0069 50.1935 23.054 49.7979 23.054 49.3828ZM33.5779 53.2427C33.2016 53.3866 32.8143 53.4917 32.4158 53.5581C32.0229 53.63 31.6162 53.666 31.1956 53.666C29.8785 53.666 28.8631 53.3091 28.1492 52.5952C27.4409 51.8813 27.0867 50.8382 27.0867 49.4658C27.0867 48.8073 27.1891 48.2096 27.3938 47.6729C27.5986 47.1361 27.8864 46.6768 28.2571 46.2949C28.6279 45.9131 29.0706 45.6198 29.5852 45.415C30.0999 45.2048 30.6671 45.0996 31.2869 45.0996C31.7186 45.0996 32.1225 45.13 32.4988 45.1909C32.8751 45.2518 33.2348 45.3514 33.5779 45.4897V46.8677C33.2182 46.6795 32.8502 46.5439 32.4739 46.4609C32.1032 46.3724 31.7186 46.3281 31.3201 46.3281C30.9493 46.3281 30.5979 46.4001 30.2659 46.5439C29.9394 46.6823 29.6517 46.8843 29.4026 47.1499C29.1536 47.4155 28.9572 47.7393 28.8133 48.1211C28.6694 48.5029 28.5975 48.9346 28.5975 49.416C28.5975 50.4232 28.8409 51.1785 29.3279 51.6821C29.8204 52.1802 30.5011 52.4292 31.3699 52.4292C31.7628 52.4292 32.1419 52.3849 32.5071 52.2964C32.8779 52.2078 33.2348 52.075 33.5779 51.8979V53.2427ZM43.6453 53.4336C43.3188 53.5166 42.9813 53.5747 42.6326 53.6079C42.284 53.6466 41.9298 53.666 41.5701 53.666C40.5242 53.666 39.744 53.4308 39.2293 52.9604C38.7147 52.4845 38.4573 51.7568 38.4573 50.7773V46.4277H36.1248V45.2158H38.4573V42.9248L39.9017 42.5513V45.2158H43.6453V46.4277H39.9017V50.6611C39.9017 51.2588 40.0594 51.707 40.3748 52.0059C40.6958 52.2992 41.1662 52.4458 41.786 52.4458C42.0516 52.4458 42.3421 52.4264 42.6575 52.3877C42.973 52.3434 43.3022 52.277 43.6453 52.1885V53.4336Z" fill="white"/>
</svg>
