<svg width="60" height="75" viewBox="0 0 60 75" fill="none" xmlns="http://www.w3.org/2000/svg">
<rect x="0.519531" y="0.25" width="59.48" height="73.98" rx="5" fill="black" fill-opacity="0.7"/>
<path d="M23.7041 18.7188C25.2988 18.7188 26.5454 19.2878 27.4438 20.4258C28.5145 21.7734 29.0498 24.0083 29.0498 27.1304C29.0498 30.245 28.5107 32.4836 27.4326 33.8462C26.5417 34.9692 25.2988 35.5308 23.7041 35.5308C22.1019 35.5308 20.8104 34.9168 19.8296 33.689C18.8488 32.4536 18.3584 30.2562 18.3584 27.0967C18.3584 23.9971 18.8975 21.766 19.9756 20.4033C20.8665 19.2803 22.1094 18.7188 23.7041 18.7188ZM23.7041 21.3354C23.3223 21.3354 22.9816 21.459 22.6821 21.7061C22.3826 21.9456 22.1506 22.3799 21.9858 23.0088C21.7687 23.8249 21.6602 25.1987 21.6602 27.1304C21.6602 29.062 21.7575 30.391 21.9521 31.1172C22.1468 31.8359 22.3901 32.3151 22.6821 32.5547C22.9816 32.7943 23.3223 32.9141 23.7041 32.9141C24.0859 32.9141 24.4266 32.7943 24.7261 32.5547C25.0256 32.3076 25.2576 31.8696 25.4224 31.2407C25.6395 30.4321 25.748 29.062 25.748 27.1304C25.748 25.1987 25.6507 23.8735 25.4561 23.1548C25.2614 22.4285 25.0143 21.9456 24.7148 21.7061C24.4229 21.459 24.0859 21.3354 23.7041 21.3354ZM31.7197 31.4429L34.7744 31.106C34.8493 31.7274 35.044 32.1878 35.3584 32.4873C35.6729 32.7868 36.0884 32.9365 36.605 32.9365C37.2564 32.9365 37.8104 32.637 38.2671 32.0381C38.7238 31.4391 39.0158 30.1963 39.1431 28.3096C38.3495 29.2305 37.3574 29.6909 36.167 29.6909C34.8718 29.6909 33.7525 29.193 32.8091 28.1973C31.8732 27.194 31.4053 25.8913 31.4053 24.2891C31.4053 22.6195 31.8994 21.2756 32.8877 20.2573C33.8835 19.2316 35.1488 18.7188 36.6836 18.7188C38.3532 18.7188 39.7233 19.3664 40.794 20.6616C41.8646 21.9494 42.3999 24.0719 42.3999 27.0293C42.3999 30.0391 41.8421 32.2103 40.7266 33.543C39.611 34.8757 38.1585 35.542 36.3692 35.542C35.0814 35.542 34.0407 35.2013 33.2471 34.52C32.4535 33.8312 31.9444 32.8055 31.7197 31.4429ZM38.8623 24.5474C38.8623 23.5291 38.6265 22.7393 38.1548 22.1777C37.6906 21.6162 37.1515 21.3354 36.5376 21.3354C35.9536 21.3354 35.467 21.5675 35.0777 22.0317C34.6958 22.4884 34.5049 23.2409 34.5049 24.2891C34.5049 25.3522 34.7145 26.1346 35.1338 26.6362C35.5531 27.1304 36.0772 27.3774 36.7061 27.3774C37.3125 27.3774 37.8216 27.1379 38.2334 26.6587C38.6527 26.1795 38.8623 25.4757 38.8623 24.5474Z" fill="white"/>
<path d="M23.8758 51.2754C23.8758 51.5687 23.826 51.8315 23.7263 52.064C23.6267 52.2964 23.4912 52.5039 23.3196 52.6865C23.1481 52.8636 22.9488 53.0158 22.7219 53.1431C22.4951 53.2703 22.2516 53.3755 21.9915 53.4585C21.7369 53.5415 21.4741 53.6024 21.2029 53.6411C20.9317 53.6799 20.6661 53.6992 20.406 53.6992C19.8416 53.6992 19.3214 53.6743 18.8455 53.6245C18.3751 53.5747 17.913 53.4945 17.4593 53.3838V52.0557C17.9462 52.194 18.4304 52.2992 18.9119 52.3711C19.3933 52.443 19.872 52.479 20.3479 52.479C21.0397 52.479 21.5515 52.3849 21.8836 52.1968C22.2156 52.0086 22.3816 51.7402 22.3816 51.3916C22.3816 51.2422 22.3539 51.1094 22.2986 50.9932C22.2488 50.8714 22.1547 50.758 22.0164 50.6528C21.878 50.5422 21.6622 50.4287 21.3689 50.3125C21.0812 50.1963 20.6855 50.0635 20.1819 49.9141C19.8056 49.8034 19.457 49.6789 19.136 49.5405C18.8206 49.3966 18.5467 49.2279 18.3142 49.0342C18.0818 48.8405 17.8992 48.6136 17.7664 48.3535C17.6336 48.0934 17.5672 47.7863 17.5672 47.4321C17.5672 47.1997 17.6197 46.9451 17.7249 46.6685C17.8356 46.3918 18.0209 46.1344 18.281 45.8965C18.5411 45.6585 18.8925 45.4621 19.3352 45.3071C19.7779 45.1466 20.3313 45.0664 20.9954 45.0664C21.3219 45.0664 21.6844 45.0858 22.0828 45.1245C22.4812 45.1577 22.8963 45.2186 23.3279 45.3071V46.5938C22.8741 46.4831 22.4425 46.4028 22.033 46.353C21.629 46.2977 21.2776 46.27 20.9788 46.27C20.6191 46.27 20.3147 46.2977 20.0657 46.353C19.8222 46.4084 19.623 46.4858 19.468 46.5854C19.3186 46.6795 19.2107 46.793 19.1443 46.9258C19.0779 47.0531 19.0447 47.1914 19.0447 47.3408C19.0447 47.4902 19.0724 47.6258 19.1277 47.7476C19.1886 47.8693 19.2965 47.9883 19.4514 48.1045C19.6119 48.2152 19.8333 48.3286 20.1155 48.4448C20.3977 48.5555 20.7657 48.6772 21.2195 48.8101C21.712 48.9539 22.1271 49.1061 22.4646 49.2666C22.8022 49.4215 23.0761 49.5959 23.2864 49.7896C23.4967 49.9832 23.6461 50.2018 23.7346 50.4453C23.8287 50.6888 23.8758 50.9655 23.8758 51.2754ZM34.1424 48.9429C34.1424 49.1476 34.1396 49.3192 34.1341 49.4575C34.1285 49.5959 34.1202 49.7259 34.1092 49.8477H28.2571C28.2571 50.6999 28.4951 51.3556 28.971 51.8149C29.4469 52.2687 30.1331 52.4956 31.0296 52.4956C31.2731 52.4956 31.5166 52.4873 31.7601 52.4707C32.0035 52.4486 32.2387 52.4209 32.4656 52.3877C32.6925 52.3545 32.9083 52.3185 33.1131 52.2798C33.3234 52.2355 33.5171 52.1885 33.6941 52.1387V53.3257C33.3012 53.4364 32.8558 53.5249 32.3577 53.5913C31.8652 53.6632 31.3533 53.6992 30.8221 53.6992C30.1082 53.6992 29.4939 53.6024 28.9793 53.4087C28.4646 53.215 28.0413 52.9355 27.7093 52.5703C27.3828 52.1995 27.1393 51.7485 26.9788 51.2173C26.8239 50.6805 26.7464 50.0745 26.7464 49.3994C26.7464 48.8128 26.8294 48.2594 26.9954 47.7393C27.167 47.2135 27.4132 46.7542 27.7342 46.3613C28.0607 45.9629 28.4591 45.6475 28.9295 45.415C29.3999 45.1826 29.9339 45.0664 30.5315 45.0664C31.1126 45.0664 31.6272 45.1577 32.0755 45.3403C32.5237 45.5229 32.9 45.783 33.2044 46.1206C33.5143 46.4526 33.7467 46.8594 33.9017 47.3408C34.0621 47.8167 34.1424 48.3507 34.1424 48.9429ZM32.6399 48.7354C32.6565 48.3646 32.6206 48.027 32.532 47.7227C32.4435 47.4128 32.3051 47.1471 32.117 46.9258C31.9344 46.7044 31.7047 46.5329 31.428 46.4111C31.1513 46.2839 30.8304 46.2202 30.4651 46.2202C30.1497 46.2202 29.8619 46.2811 29.6019 46.4028C29.3418 46.5246 29.1176 46.6961 28.9295 46.9175C28.7413 47.1388 28.5892 47.4045 28.4729 47.7144C28.3567 48.0243 28.2848 48.3646 28.2571 48.7354H32.6399ZM44.0521 49.2334C44.0521 49.9749 43.9469 50.6224 43.7366 51.1758C43.5319 51.7292 43.2469 52.1885 42.8817 52.5537C42.5164 52.9189 42.0848 53.1929 41.5867 53.3755C41.0887 53.5581 40.5491 53.6494 39.9681 53.6494C39.7025 53.6494 39.4368 53.6356 39.1712 53.6079C38.9111 53.5802 38.6455 53.5332 38.3743 53.4668V56.9531H36.93V45.2158H38.2166L38.3079 46.6104C38.723 46.0404 39.1657 45.6419 39.6361 45.415C40.1064 45.1826 40.6155 45.0664 41.1634 45.0664C41.6393 45.0664 42.0571 45.166 42.4168 45.3652C42.7765 45.5645 43.0781 45.8467 43.3216 46.2119C43.5651 46.5716 43.7477 47.0088 43.8694 47.5234C43.9912 48.0326 44.0521 48.6025 44.0521 49.2334ZM42.5745 49.2998C42.5745 48.8626 42.5413 48.4614 42.4749 48.0962C42.414 47.731 42.3144 47.4183 42.1761 47.1582C42.0377 46.8981 41.8607 46.6961 41.6448 46.5522C41.429 46.4028 41.1717 46.3281 40.8729 46.3281C40.6903 46.3281 40.5049 46.3586 40.3167 46.4194C40.1286 46.4748 39.9321 46.5716 39.7274 46.71C39.5281 46.8428 39.3151 47.0226 39.0882 47.2495C38.8668 47.4709 38.6289 47.7476 38.3743 48.0796V52.1221C38.64 52.2327 38.9194 52.3213 39.2127 52.3877C39.506 52.4486 39.7938 52.479 40.076 52.479C40.8563 52.479 41.4678 52.2161 41.9105 51.6904C42.3532 51.1592 42.5745 50.3623 42.5745 49.2998Z" fill="white"/>
</svg>
